<svg xmlns="http://www.w3.org/2000/svg" width="95" height="33" fill="none" viewBox="0 0 96 34"><path fill="#262626" d="M6.2 24.468a8.1 8.1 0 0 0 1.668 2.736 7.2 7.2 0 0 0 2.524 1.74 8.2 8.2 0 0 0 3.178.603 7.8 7.8 0 0 0 3.126-.627 7.7 7.7 0 0 0 2.543-1.764 8 8 0 0 0 1.686-2.711 9.8 9.8 0 0 0 .603-3.524V.885h4.863v32.464h-4.817v-3.012a11.2 11.2 0 0 1-3.82 2.644c-1.506.624-3.12.938-4.75.923a12.8 12.8 0 0 1-4.835-.899 11.3 11.3 0 0 1-3.894-2.574 12.1 12.1 0 0 1-2.593-4.01q-.947-2.344-.947-5.217V.884h4.863v20.037a10 10 0 0 0 .602 3.547M34.78.885V12.71a12.4 12.4 0 0 1 3.75-2.574c1.461-.642 3.041-.966 4.636-.95 1.67-.012 3.324.32 4.86.974a12.27 12.27 0 0 1 6.578 6.585c.65 1.524.981 3.166.973 4.823.01 1.65-.321 3.285-.973 4.8a12.32 12.32 0 0 1-6.578 6.563 12.2 12.2 0 0 1-4.86.974 11.4 11.4 0 0 1-4.655-.951 12.3 12.3 0 0 1-3.775-2.574v2.968h-4.632V.885zm.531 23.885c.405.97.995 1.853 1.738 2.597a8.4 8.4 0 0 0 2.594 1.762 7.9 7.9 0 0 0 3.195.65 7.8 7.8 0 0 0 3.15-.65 8.1 8.1 0 0 0 2.571-1.762 8.6 8.6 0 0 0 1.743-2.597c.436-1.01.656-2.1.648-3.2a8.1 8.1 0 0 0-.648-3.224 8.5 8.5 0 0 0-1.743-2.62 7.8 7.8 0 0 0-2.57-1.74 8.13 8.13 0 0 0-10.654 4.36 8.1 8.1 0 0 0-.648 3.223 8.2 8.2 0 0 0 .624 3.2M58.217 16.791a12.6 12.6 0 0 1 2.547-3.917 12.25 12.25 0 0 1 13.387-2.713 11.2 11.2 0 0 1 3.751 2.573 11.8 11.8 0 0 1 2.46 3.9c.597 1.561.895 3.221.88 4.893v1.524H62.014c.145.938.458 1.841.922 2.668a7.96 7.96 0 0 0 4.1 3.549 7.7 7.7 0 0 0 2.802.513q4.216 0 6.808-3.479l3.383 2.505a12.6 12.6 0 0 1-4.354 3.71q-2.595 1.345-5.836 1.345a13 13 0 0 1-4.933-.923 12 12 0 0 1-3.98-2.602 12.3 12.3 0 0 1-2.665-3.919 12.2 12.2 0 0 1-.974-4.893 12.2 12.2 0 0 1 .929-4.734m6.508-1.832q-1.969 1.648-2.618 4.384h14.406q-.602-2.736-2.571-4.383-1.97-1.645-4.612-1.642-2.637-.003-4.605 1.642M89.991 15.493q-1.482 1.623-1.483 4.406v13.45h-4.677V9.695h4.636v2.922a6.6 6.6 0 0 1 2.288-2.272q1.412-.836 3.359-.836h1.621v4.36h-1.947q-2.315 0-3.797 1.623"></path></svg>