<svg xmlns="http://www.w3.org/2000/svg" version="1.1" xmlns:xlink="http://www.w3.org/1999/xlink" xmlns:svgjs="http://svgjs.dev/svgjs" viewBox="0 0 800 800"><g transform="matrix(0.8746197071393957,-0.48480962024633706,0.48480962024633706,0.8746197071393957,-280.77173095429316,176.0759652427765)"><path d="M681.5729150368807 491.7267863012375C684.9311952120589 489.7882315524113 689.0688047879411 489.7882315524113 692.4270849631193 491.7273290097338L752.0729195417853 526.1638112262144C755.4311997169634 528.1023659750407 757.5000045049045 531.6858701761884 757.5000045049045 535.563522382337V604.4364868152984C757.5000045049045 608.3141390214471 755.4311997169634 611.8976432225948 752.0729195417853 613.8367406799173L692.4270849631193 648.273222896398C689.0688047879411 650.2117776452242 684.9311952120589 650.2117776452242 681.5729150368807 648.2726801879016L621.9270804582147 613.836197971421C618.5688002830366 611.8976432225948 616.4999954950955 608.3141390214471 616.4999954950955 604.4364868152984V535.563522382337C616.4999954950955 531.6858701761884 618.5688002830366 528.1023659750407 621.9270804582147 526.1632685177182L681.5729150368807 491.7267863012375Z " stroke-width="7" stroke="#202046" fill="none" opacity="0.01" transform="matrix(-0.30901699437494734,0.8682556622048937,-0.9510565162951536,-0.5638518198725906,769.7727213341304,490.8674183459999)"></path><path d="M637.5238787425171 394.241185770224C641.6860025766475 391.83861525705106 646.8139974233525 391.83861525705106 650.9761212574829 394.24185838234973L724.8988843257232 436.9211155974561C729.0610081598536 439.323686110629 731.6250055832061 443.76494397694495 731.6250055832061 448.57075761541654V533.9292720456292C731.6250055832061 538.7350856841008 729.0610081598536 543.1763435504167 724.8988843257232 545.5795866757154L650.9761212574829 588.2588438908218C646.8139974233525 590.6614144039947 641.6860025766475 590.6614144039947 637.5238787425171 588.2581712786961L563.6011156742768 545.5789140635898C559.4389918401464 543.1763435504167 556.8749944167939 538.7350856841008 556.8749944167939 533.9292720456292V448.57075761541654C556.8749944167939 443.76494397694495 559.4389918401464 439.323686110629 563.6011156742768 436.92044298533034L637.5238787425171 394.241185770224Z " stroke-width="7.5" stroke="#2b2e57" fill="none" opacity="0.2575" transform="matrix(0.15643446504023092,1.0188050903760604,-0.9876883405951378,-0.04002896102083389,654.9782062010738,157.58474945803016)"></path><path d="M593.4748424481534 296.75555472163234C598.440809941236 293.8889684441127 604.559190058764 293.8889684441127 609.5251575518466 296.75635723738753L697.7248491096611 347.6783894511196C702.6908166027438 350.54497572863914 705.7500066615078 355.84398726012347 705.7500066615078 361.5779623309179V463.422026758382C705.7500066615078 469.1560018291764 702.6908166027438 474.4550133606607 697.7248491096611 477.3224021539354L609.5251575518466 528.2444343676675C604.559190058764 531.1110206451871 598.440809941236 531.1110206451871 593.4748424481534 528.2436318519124L505.27515089033886 477.32159963818026C500.3091833972562 474.4550133606607 497.2499933384923 469.1560018291764 497.2499933384923 463.422026758382V361.5779623309179C497.2499933384923 355.84398726012347 500.3091833972562 350.54497572863914 505.27515089033886 347.6775869353644L593.4748424481534 296.75555472163234Z " stroke-width="8" stroke="#333866" fill="none" opacity="0.505" transform="matrix(0.5877852522924731,0.8864003908842891,-0.8090169943749475,0.48127614439236316,458.44333497308526,-54.35681138856751)"></path><path d="M549.4258061537898 199.26993893182973C555.1956173058247 195.93933688996344 562.3043826941753 195.93933688996344 568.0741938462102 199.27087135121437L670.5508138935991 258.4356785635721C676.320625045634 261.7662806054384 679.8750077398093 267.923045802091 679.8750077398093 274.58518230520826V392.91479672992375C679.8750077398093 399.57693323304096 676.320625045634 405.7336984296936 670.5508138935991 409.06523289094446L568.0741938462102 468.23004010330214C562.3043826941753 471.56064214516846 555.1956173058247 471.56064214516846 549.4258061537898 468.2291076839176L446.9491861064009 409.0643004715599C441.179374954366 405.7336984296936 437.62499226019065 399.57693323304096 437.62499226019065 392.91479672992375V274.58518230520826C437.62499226019065 267.923045802091 441.179374954366 261.7662806054384 446.9491861064009 258.4347461441875L549.4258061537898 199.26993893182973Z " stroke-width="8.5" stroke="#3b4173" fill="none" opacity="0.7525" transform="matrix(0.8910065241883679,0.5123901527258217,-0.45399049973954675,0.8612504147502175,223.0101451168248,-103.60381121808166)"></path><path d="M505.37676985942613 101.78433077142168C511.9504246704132 97.9897129652087 520.0495753295868 97.9897129652087 526.6232301405739 101.78539309443573L643.376778677537 169.19297530541917C649.9504334885241 172.98759311163218 654.0000088181109 180.0021119734531 654.0000088181109 187.59240990889316V322.40757433086003C654.0000088181109 329.9978722663001 649.9504334885241 337.01239112812107 643.376778677537 340.8080712573481L526.6232301405739 408.21565346833154C520.0495753295868 412.0102712745445 511.9504246704132 412.0102712745445 505.37676985942613 408.2145911453174L388.62322132246294 340.807008934334C382.0495665114758 337.01239112812107 377.9999911818891 329.9978722663001 377.9999911818891 322.40757433086003V187.59240990889316C377.9999911818891 180.0021119734531 382.0495665114758 172.98759311163218 388.62322132246294 169.19191298240514L505.37676985942613 101.78433077142168Z " stroke-width="9" stroke="#41497e" fill="none" opacity="1" transform="matrix(1,0,0,1,0,0)"></path></g></svg>