<svg xmlns="http://www.w3.org/2000/svg" width="1920" height="1440" fill="none" xmlns:v="https://vecta.io/nano"><style><![CDATA[.B{fill:#fff}.C{fill:#d0d5dd85}.D{fill:#f2f4f7}]]></style><mask id="A"  maskUnits="userSpaceOnUse" x="240" y="0" width="1440" height="1440" mask-type="alpha"><path transform="translate(240)" fill="url(#JJ)" d="M0 0h1440v1440H0z"/></mask><g mask="url(#A)"><g clip-path="url(#JK)"><mask id="B" class="B"><path d="M192 0h64v64h-64V0z"/></mask><path d="M256 64v1h1v-1h-1zm-1-64v64h2V0h-2zm1 63h-64v2h64v-2z" mask="url(#B)" class="C"/><mask id="C" class="B"><path d="M256 0h64v64h-64V0z"/></mask><path d="M320 64v1h1v-1h-1zm-1-64v64h2V0h-2zm1 63h-64v2h64v-2z" mask="url(#C)" class="C"/><mask id="D" class="B"><path d="M320 0h64v64h-64V0z"/></mask><path d="M384 64v1h1v-1h-1zm-1-64v64h2V0h-2zm1 63h-64v2h64v-2z" mask="url(#D)" class="C"/><mask id="E" class="B"><path d="M384 0h64v64h-64V0z"/></mask><path d="M448 64v1h1v-1h-1zm-1-64v64h2V0h-2zm1 63h-64v2h64v-2z" mask="url(#E)" class="C"/><mask id="F" class="B"><path d="M448 0h64v64h-64V0z"/></mask><path d="M512 64v1h1v-1h-1zm-1-64v64h2V0h-2zm1 63h-64v2h64v-2z" mask="url(#F)" class="C"/><mask id="G" class="B"><path d="M512 0h64v64h-64V0z"/></mask><path d="M576 64v1h1v-1h-1zm-1-64v64h2V0h-2zm1 63h-64v2h64v-2z" mask="url(#G)" class="C"/><mask id="H" class="B"><path d="M576 0h64v64h-64V0z"/></mask><path d="M640 64v1h1v-1h-1zm-1-64v64h2V0h-2zm1 63h-64v2h64v-2z" mask="url(#H)" class="C"/><mask id="I" class="B"><path d="M640 0h64v64h-64V0z"/></mask><path d="M704 64v1h1v-1h-1zm-1-64v64h2V0h-2zm1 63h-64v2h64v-2z" mask="url(#I)" class="C"/><mask id="J" class="B"><path d="M704 0h64v64h-64V0z"/></mask><path d="M768 64v1h1v-1h-1zm-1-64v64h2V0h-2zm1 63h-64v2h64v-2z" mask="url(#J)" class="C"/><mask id="K" class="B"><path d="M768 0h64v64h-64V0z"/></mask><path d="M832 64v1h1v-1h-1zm-1-64v64h2V0h-2zm1 63h-64v2h64v-2z" mask="url(#K)" class="C"/><mask id="L" class="B"><path d="M832 0h64v64h-64V0z"/></mask><path d="M896 64v1h1v-1h-1zm-1-64v64h2V0h-2zm1 63h-64v2h64v-2z" mask="url(#L)" class="C"/><mask id="M" class="B"><path d="M896 0h64v64h-64V0z"/></mask><path d="M960 64v1h1v-1h-1zm-1-64v64h2V0h-2zm1 63h-64v2h64v-2z" mask="url(#M)" class="C"/><mask id="N" class="B"><path d="M960 0h64v64h-64V0z"/></mask><path d="M1024 64v1h1v-1h-1zm-1-64v64h2V0h-2zm1 63h-64v2h64v-2z" mask="url(#N)" class="C"/><mask id="O" class="B"><path d="M1024 0h64v64h-64V0z"/></mask><path d="M1088 64v1h1v-1h-1zm-1-64v64h2V0h-2zm1 63h-64v2h64v-2z" mask="url(#O)" class="C"/><mask id="P" class="B"><path d="M1088 0h64v64h-64V0z"/></mask><path d="M1152 64v1h1v-1h-1zm-1-64v64h2V0h-2zm1 63h-64v2h64v-2z" mask="url(#P)" class="C"/><mask id="Q" class="B"><path d="M1152 0h64v64h-64V0z"/></mask><path d="M1216 64v1h1v-1h-1zm-1-64v64h2V0h-2zm1 63h-64v2h64v-2z" mask="url(#Q)" class="C"/><mask id="R" class="B"><path d="M1216 0h64v64h-64V0z"/></mask><path d="M1280 64v1h1v-1h-1zm-1-64v64h2V0h-2zm1 63h-64v2h64v-2z" mask="url(#R)" class="C"/><mask id="S" class="B"><path d="M1280 0h64v64h-64V0z"/></mask><path d="M1344 64v1h1v-1h-1zm-1-64v64h2V0h-2zm1 63h-64v2h64v-2z" mask="url(#S)" class="C"/><mask id="T" class="B"><path d="M1344 0h64v64h-64V0z"/></mask><path d="M1408 64v1h1v-1h-1zm-1-64v64h2V0h-2zm1 63h-64v2h64v-2z" mask="url(#T)" class="C"/><mask id="U" class="B"><path d="M1408 0h64v64h-64V0z"/></mask><path d="M1472 64v1h1v-1h-1zm-1-64v64h2V0h-2zm1 63h-64v2h64v-2z" mask="url(#U)" class="C"/><mask id="V" class="B"><path d="M1472 0h64v64h-64V0z"/></mask><path d="M1536 64v1h1v-1h-1zm-1-64v64h2V0h-2zm1 63h-64v2h64v-2z" mask="url(#V)" class="C"/><mask id="W" class="B"><path d="M1536 0h64v64h-64V0z"/></mask><path d="M1600 64v1h1v-1h-1zm-1-64v64h2V0h-2zm1 63h-64v2h64v-2z" mask="url(#W)" class="C"/><mask id="X" class="B"><path d="M1600 0h64v64h-64V0z"/></mask><path d="M1664 64v1h1v-1h-1zm-1-64v64h2V0h-2zm1 63h-64v2h64v-2z" mask="url(#X)" class="C"/><mask id="Y" class="B"><path d="M1664 0h64v64h-64V0z"/></mask><path d="M1728 64v1h1v-1h-1zm-1-64v64h2V0h-2zm1 63h-64v2h64v-2z" mask="url(#Y)" class="C"/><mask id="Z" class="B"><path d="M192 64h64v64h-64V64z"/></mask><path d="M256 128v1h1v-1h-1zm-1-64v64h2V64h-2zm1 63h-64v2h64v-2z" mask="url(#Z)" class="C"/><mask id="a" class="B"><path d="M256 64h64v64h-64V64z"/></mask><path d="M320 128v1h1v-1h-1zm-1-64v64h2V64h-2zm1 63h-64v2h64v-2z" mask="url(#a)" class="C"/><mask id="b" class="B"><path d="M320 64h64v64h-64V64z"/></mask><path d="M320 64h64v64h-64V64z" class="D"/><path d="M384 128v1h1v-1h-1zm-1-64v64h2V64h-2zm1 63h-64v2h64v-2z" mask="url(#b)" class="C"/><mask id="c" class="B"><path d="M384 64h64v64h-64V64z"/></mask><path d="M448 128v1h1v-1h-1zm-1-64v64h2V64h-2zm1 63h-64v2h64v-2z" mask="url(#c)" class="C"/><mask id="d" class="B"><path d="M448 64h64v64h-64V64z"/></mask><path d="M512 128v1h1v-1h-1zm-1-64v64h2V64h-2zm1 63h-64v2h64v-2z" mask="url(#d)" class="C"/><mask id="e" class="B"><path d="M512 64h64v64h-64V64z"/></mask><path d="M576 128v1h1v-1h-1zm-1-64v64h2V64h-2zm1 63h-64v2h64v-2z" mask="url(#e)" class="C"/><mask id="f" class="B"><path d="M576 64h64v64h-64V64z"/></mask><path d="M576 64h64v64h-64V64z" class="D"/><path d="M640 128v1h1v-1h-1zm-1-64v64h2V64h-2zm1 63h-64v2h64v-2z" mask="url(#f)" class="C"/><mask id="g" class="B"><path d="M640 64h64v64h-64V64z"/></mask><path d="M704 128v1h1v-1h-1zm-1-64v64h2V64h-2zm1 63h-64v2h64v-2z" mask="url(#g)" class="C"/><mask id="h" class="B"><path d="M704 64h64v64h-64V64z"/></mask><path d="M768 128v1h1v-1h-1zm-1-64v64h2V64h-2zm1 63h-64v2h64v-2z" mask="url(#h)" class="C"/><mask id="i" class="B"><path d="M768 64h64v64h-64V64z"/></mask><path d="M832 128v1h1v-1h-1zm-1-64v64h2V64h-2zm1 63h-64v2h64v-2z" mask="url(#i)" class="C"/><mask id="j" class="B"><path d="M832 64h64v64h-64V64z"/></mask><path d="M896 128v1h1v-1h-1zm-1-64v64h2V64h-2zm1 63h-64v2h64v-2z" mask="url(#j)" class="C"/><mask id="k" class="B"><path d="M896 64h64v64h-64V64z"/></mask><path d="M960 128v1h1v-1h-1zm-1-64v64h2V64h-2zm1 63h-64v2h64v-2z" mask="url(#k)" class="C"/><mask id="l" class="B"><path d="M960 64h64v64h-64V64z"/></mask><path d="M1024 128v1h1v-1h-1zm-1-64v64h2V64h-2zm1 63h-64v2h64v-2z" mask="url(#l)" class="C"/><mask id="m" class="B"><path d="M1024 64h64v64h-64V64z"/></mask><path d="M1088 128v1h1v-1h-1zm-1-64v64h2V64h-2zm1 63h-64v2h64v-2z" mask="url(#m)" class="C"/><mask id="n" class="B"><path d="M1088 64h64v64h-64V64z"/></mask><path d="M1152 128v1h1v-1h-1zm-1-64v64h2V64h-2zm1 63h-64v2h64v-2z" mask="url(#n)" class="C"/><mask id="o" class="B"><path d="M1152 64h64v64h-64V64z"/></mask><path d="M1216 128v1h1v-1h-1zm-1-64v64h2V64h-2zm1 63h-64v2h64v-2z" mask="url(#o)" class="C"/><mask id="p" class="B"><path d="M1216 64h64v64h-64V64z"/></mask><path d="M1280 128v1h1v-1h-1zm-1-64v64h2V64h-2zm1 63h-64v2h64v-2z" mask="url(#p)" class="C"/><mask id="q" class="B"><path d="M1280 64h64v64h-64V64z"/></mask><path d="M1280 64h64v64h-64V64z" class="D"/><path d="M1344 128v1h1v-1h-1zm-1-64v64h2V64h-2zm1 63h-64v2h64v-2z" mask="url(#q)" class="C"/><mask id="r" class="B"><path d="M1344 64h64v64h-64V64z"/></mask><path d="M1408 128v1h1v-1h-1zm-1-64v64h2V64h-2zm1 63h-64v2h64v-2z" mask="url(#r)" class="C"/><mask id="s" class="B"><path d="M1408 64h64v64h-64V64z"/></mask><path d="M1472 128v1h1v-1h-1zm-1-64v64h2V64h-2zm1 63h-64v2h64v-2z" mask="url(#s)" class="C"/><mask id="t" class="B"><path d="M1472 64h64v64h-64V64z"/></mask><path d="M1536 128v1h1v-1h-1zm-1-64v64h2V64h-2zm1 63h-64v2h64v-2z" mask="url(#t)" class="C"/><mask id="u" class="B"><path d="M1536 64h64v64h-64V64z"/></mask><path d="M1600 128v1h1v-1h-1zm-1-64v64h2V64h-2zm1 63h-64v2h64v-2z" mask="url(#u)" class="C"/><mask id="v" class="B"><path d="M1600 64h64v64h-64V64z"/></mask><path d="M1664 128v1h1v-1h-1zm-1-64v64h2V64h-2zm1 63h-64v2h64v-2z" mask="url(#v)" class="C"/><mask id="w" class="B"><path d="M1664 64h64v64h-64V64z"/></mask><path d="M1728 128v1h1v-1h-1zm-1-64v64h2V64h-2zm1 63h-64v2h64v-2z" mask="url(#w)" class="C"/><mask id="x" class="B"><path d="M192 128h64v64h-64v-64z"/></mask><path d="M256 192v1h1v-1h-1zm-1-64v64h2v-64h-2zm1 63h-64v2h64v-2z" mask="url(#x)" class="C"/><mask id="y" class="B"><path d="M256 128h64v64h-64v-64z"/></mask><path d="M320 192v1h1v-1h-1zm-1-64v64h2v-64h-2zm1 63h-64v2h64v-2z" mask="url(#y)" class="C"/><mask id="z" class="B"><path d="M320 128h64v64h-64v-64z"/></mask><path d="M384 192v1h1v-1h-1zm-1-64v64h2v-64h-2zm1 63h-64v2h64v-2z" mask="url(#z)" class="C"/><mask id="AA" class="B"><path d="M384 128h64v64h-64v-64z"/></mask><path d="M448 192v1h1v-1h-1zm-1-64v64h2v-64h-2zm1 63h-64v2h64v-2z" mask="url(#AA)" class="C"/><mask id="AB" class="B"><path d="M448 128h64v64h-64v-64z"/></mask><path d="M512 192v1h1v-1h-1zm-1-64v64h2v-64h-2zm1 63h-64v2h64v-2z" mask="url(#AB)" class="C"/><mask id="AC" class="B"><path d="M512 128h64v64h-64v-64z"/></mask><path d="M576 192v1h1v-1h-1zm-1-64v64h2v-64h-2zm1 63h-64v2h64v-2z" mask="url(#AC)" class="C"/><mask id="AD" class="B"><path d="M576 128h64v64h-64v-64z"/></mask><path d="M640 192v1h1v-1h-1zm-1-64v64h2v-64h-2zm1 63h-64v2h64v-2z" mask="url(#AD)" class="C"/><mask id="AE" class="B"><path d="M640 128h64v64h-64v-64z"/></mask><path d="M704 192v1h1v-1h-1zm-1-64v64h2v-64h-2zm1 63h-64v2h64v-2z" mask="url(#AE)" class="C"/><mask id="AF" class="B"><path d="M704 128h64v64h-64v-64z"/></mask><path d="M704 128h64v64h-64v-64z" class="D"/><path d="M768 192v1h1v-1h-1zm-1-64v64h2v-64h-2zm1 63h-64v2h64v-2z" mask="url(#AF)" class="C"/><mask id="AG" class="B"><path d="M768 128h64v64h-64v-64z"/></mask><path d="M832 192v1h1v-1h-1zm-1-64v64h2v-64h-2zm1 63h-64v2h64v-2z" mask="url(#AG)" class="C"/><mask id="AH" class="B"><path d="M832 128h64v64h-64v-64z"/></mask><path d="M896 192v1h1v-1h-1zm-1-64v64h2v-64h-2zm1 63h-64v2h64v-2z" mask="url(#AH)" class="C"/><mask id="AI" class="B"><path d="M896 128h64v64h-64v-64z"/></mask><path d="M960 192v1h1v-1h-1zm-1-64v64h2v-64h-2zm1 63h-64v2h64v-2z" mask="url(#AI)" class="C"/><mask id="AJ" class="B"><path d="M960 128h64v64h-64v-64z"/></mask><path d="M1024 192v1h1v-1h-1zm-1-64v64h2v-64h-2zm1 63h-64v2h64v-2z" mask="url(#AJ)" class="C"/><mask id="AK" class="B"><path d="M1024 128h64v64h-64v-64z"/></mask><path d="M1024 128h64v64h-64v-64z" class="D"/><path d="M1088 192v1h1v-1h-1zm-1-64v64h2v-64h-2zm1 63h-64v2h64v-2z" mask="url(#AK)" class="C"/><mask id="AL" class="B"><path d="M1088 128h64v64h-64v-64z"/></mask><path d="M1152 192v1h1v-1h-1zm-1-64v64h2v-64h-2zm1 63h-64v2h64v-2z" mask="url(#AL)" class="C"/><mask id="AM" class="B"><path d="M1152 128h64v64h-64v-64z"/></mask><path d="M1216 192v1h1v-1h-1zm-1-64v64h2v-64h-2zm1 63h-64v2h64v-2z" mask="url(#AM)" class="C"/><mask id="AN" class="B"><path d="M1216 128h64v64h-64v-64z"/></mask><path d="M1280 192v1h1v-1h-1zm-1-64v64h2v-64h-2zm1 63h-64v2h64v-2z" mask="url(#AN)" class="C"/><mask id="AO" class="B"><path d="M1280 128h64v64h-64v-64z"/></mask><path d="M1344 192v1h1v-1h-1zm-1-64v64h2v-64h-2zm1 63h-64v2h64v-2z" mask="url(#AO)" class="C"/><mask id="AP" class="B"><path d="M1344 128h64v64h-64v-64z"/></mask><path d="M1408 192v1h1v-1h-1zm-1-64v64h2v-64h-2zm1 63h-64v2h64v-2z" mask="url(#AP)" class="C"/><mask id="AQ" class="B"><path d="M1408 128h64v64h-64v-64z"/></mask><path d="M1472 192v1h1v-1h-1zm-1-64v64h2v-64h-2zm1 63h-64v2h64v-2z" mask="url(#AQ)" class="C"/><mask id="AR" class="B"><path d="M1472 128h64v64h-64v-64z"/></mask><path d="M1536 192v1h1v-1h-1zm-1-64v64h2v-64h-2zm1 63h-64v2h64v-2z" mask="url(#AR)" class="C"/><mask id="AS" class="B"><path d="M1536 128h64v64h-64v-64z"/></mask><path d="M1600 192v1h1v-1h-1zm-1-64v64h2v-64h-2zm1 63h-64v2h64v-2z" mask="url(#AS)" class="C"/><mask id="AT" class="B"><path d="M1600 128h64v64h-64v-64z"/></mask><path d="M1664 192v1h1v-1h-1zm-1-64v64h2v-64h-2zm1 63h-64v2h64v-2z" mask="url(#AT)" class="C"/><mask id="AU" class="B"><path d="M1664 128h64v64h-64v-64z"/></mask><path d="M1664 128h64v64h-64v-64z" class="D"/><path d="M1728 192v1h1v-1h-1zm-1-64v64h2v-64h-2zm1 63h-64v2h64v-2z" mask="url(#AU)" class="C"/><mask id="AV" class="B"><path d="M192 192h64v64h-64v-64z"/></mask><path d="M192 192h64v64h-64v-64z" class="D"/><path d="M256 256v1h1v-1h-1zm-1-64v64h2v-64h-2zm1 63h-64v2h64v-2z" mask="url(#AV)" class="C"/><mask id="AW" class="B"><path d="M256 192h64v64h-64v-64z"/></mask><path d="M320 256v1h1v-1h-1zm-1-64v64h2v-64h-2zm1 63h-64v2h64v-2z" mask="url(#AW)" class="C"/><mask id="AX" class="B"><path d="M320 192h64v64h-64v-64z"/></mask><path d="M384 256v1h1v-1h-1zm-1-64v64h2v-64h-2zm1 63h-64v2h64v-2z" mask="url(#AX)" class="C"/><mask id="AY" class="B"><path d="M384 192h64v64h-64v-64z"/></mask><path d="M384 192h64v64h-64v-64z" class="D"/><path d="M448 256v1h1v-1h-1zm-1-64v64h2v-64h-2zm1 63h-64v2h64v-2z" mask="url(#AY)" class="C"/><mask id="AZ" class="B"><path d="M448 192h64v64h-64v-64z"/></mask><path d="M512 256v1h1v-1h-1zm-1-64v64h2v-64h-2zm1 63h-64v2h64v-2z" mask="url(#AZ)" class="C"/><mask id="Aa" class="B"><path d="M512 192h64v64h-64v-64z"/></mask><path d="M576 256v1h1v-1h-1zm-1-64v64h2v-64h-2zm1 63h-64v2h64v-2z" mask="url(#Aa)" class="C"/><mask id="Ab" class="B"><path d="M576 192h64v64h-64v-64z"/></mask><path d="M640 256v1h1v-1h-1zm-1-64v64h2v-64h-2zm1 63h-64v2h64v-2z" mask="url(#Ab)" class="C"/><mask id="Ac" class="B"><path d="M640 192h64v64h-64v-64z"/></mask><path d="M704 256v1h1v-1h-1zm-1-64v64h2v-64h-2zm1 63h-64v2h64v-2z" mask="url(#Ac)" class="C"/><mask id="Ad" class="B"><path d="M704 192h64v64h-64v-64z"/></mask><path d="M768 256v1h1v-1h-1zm-1-64v64h2v-64h-2zm1 63h-64v2h64v-2z" mask="url(#Ad)" class="C"/><mask id="Ae" class="B"><path d="M768 192h64v64h-64v-64z"/></mask><path d="M832 256v1h1v-1h-1zm-1-64v64h2v-64h-2zm1 63h-64v2h64v-2z" mask="url(#Ae)" class="C"/><mask id="Af" class="B"><path d="M832 192h64v64h-64v-64z"/></mask><path d="M896 256v1h1v-1h-1zm-1-64v64h2v-64h-2zm1 63h-64v2h64v-2z" mask="url(#Af)" class="C"/><mask id="Ag" class="B"><path d="M896 192h64v64h-64v-64z"/></mask><path d="M960 256v1h1v-1h-1zm-1-64v64h2v-64h-2zm1 63h-64v2h64v-2z" mask="url(#Ag)" class="C"/><mask id="Ah" class="B"><path d="M960 192h64v64h-64v-64z"/></mask><path d="M1024 256v1h1v-1h-1zm-1-64v64h2v-64h-2zm1 63h-64v2h64v-2z" mask="url(#Ah)" class="C"/><mask id="Ai" class="B"><path d="M1024 192h64v64h-64v-64z"/></mask><path d="M1088 256v1h1v-1h-1zm-1-64v64h2v-64h-2zm1 63h-64v2h64v-2z" mask="url(#Ai)" class="C"/><mask id="Aj" class="B"><path d="M1088 192h64v64h-64v-64z"/></mask><path d="M1152 256v1h1v-1h-1zm-1-64v64h2v-64h-2zm1 63h-64v2h64v-2z" mask="url(#Aj)" class="C"/><mask id="Ak" class="B"><path d="M1152 192h64v64h-64v-64z"/></mask><path d="M1216 256v1h1v-1h-1zm-1-64v64h2v-64h-2zm1 63h-64v2h64v-2z" mask="url(#Ak)" class="C"/><mask id="Al" class="B"><path d="M1216 192h64v64h-64v-64z"/></mask><path d="M1280 256v1h1v-1h-1zm-1-64v64h2v-64h-2zm1 63h-64v2h64v-2z" mask="url(#Al)" class="C"/><mask id="Am" class="B"><path d="M1280 192h64v64h-64v-64z"/></mask><path d="M1280 192h64v64h-64v-64z" class="D"/><path d="M1344 256v1h1v-1h-1zm-1-64v64h2v-64h-2zm1 63h-64v2h64v-2z" mask="url(#Am)" class="C"/><mask id="An" class="B"><path d="M1344 192h64v64h-64v-64z"/></mask><path d="M1408 256v1h1v-1h-1zm-1-64v64h2v-64h-2zm1 63h-64v2h64v-2z" mask="url(#An)" class="C"/><mask id="Ao" class="B"><path d="M1408 192h64v64h-64v-64z"/></mask><path d="M1472 256v1h1v-1h-1zm-1-64v64h2v-64h-2zm1 63h-64v2h64v-2z" mask="url(#Ao)" class="C"/><mask id="Ap" class="B"><path d="M1472 192h64v64h-64v-64z"/></mask><path d="M1536 256v1h1v-1h-1zm-1-64v64h2v-64h-2zm1 63h-64v2h64v-2z" mask="url(#Ap)" class="C"/><mask id="Aq" class="B"><path d="M1536 192h64v64h-64v-64z"/></mask><path d="M1600 256v1h1v-1h-1zm-1-64v64h2v-64h-2zm1 63h-64v2h64v-2z" mask="url(#Aq)" class="C"/><mask id="Ar" class="B"><path d="M1600 192h64v64h-64v-64z"/></mask><path d="M1664 256v1h1v-1h-1zm-1-64v64h2v-64h-2zm1 63h-64v2h64v-2z" mask="url(#Ar)" class="C"/><mask id="As" class="B"><path d="M1664 192h64v64h-64v-64z"/></mask><path d="M1728 256v1h1v-1h-1zm-1-64v64h2v-64h-2zm1 63h-64v2h64v-2z" mask="url(#As)" class="C"/><mask id="At" class="B"><path d="M192 256h64v64h-64v-64z"/></mask><path d="M256 320v1h1v-1h-1zm-1-64v64h2v-64h-2zm1 63h-64v2h64v-2z" mask="url(#At)" class="C"/><mask id="Au" class="B"><path d="M256 256h64v64h-64v-64z"/></mask><path d="M320 320v1h1v-1h-1zm-1-64v64h2v-64h-2zm1 63h-64v2h64v-2z" mask="url(#Au)" class="C"/><mask id="Av" class="B"><path d="M320 256h64v64h-64v-64z"/></mask><path d="M384 320v1h1v-1h-1zm-1-64v64h2v-64h-2zm1 63h-64v2h64v-2z" mask="url(#Av)" class="C"/><mask id="Aw" class="B"><path d="M384 256h64v64h-64v-64z"/></mask><path d="M448 320v1h1v-1h-1zm-1-64v64h2v-64h-2zm1 63h-64v2h64v-2z" mask="url(#Aw)" class="C"/><mask id="Ax" class="B"><path d="M448 256h64v64h-64v-64z"/></mask><path d="M512 320v1h1v-1h-1zm-1-64v64h2v-64h-2zm1 63h-64v2h64v-2z" mask="url(#Ax)" class="C"/><mask id="Ay" class="B"><path d="M512 256h64v64h-64v-64z"/></mask><path d="M512 256h64v64h-64v-64z" class="D"/><path d="M576 320v1h1v-1h-1zm-1-64v64h2v-64h-2zm1 63h-64v2h64v-2z" mask="url(#Ay)" class="C"/><mask id="Az" class="B"><path d="M576 256h64v64h-64v-64z"/></mask><path d="M640 320v1h1v-1h-1zm-1-64v64h2v-64h-2zm1 63h-64v2h64v-2z" mask="url(#Az)" class="C"/><mask id="BA" class="B"><path d="M640 256h64v64h-64v-64z"/></mask><path d="M704 320v1h1v-1h-1zm-1-64v64h2v-64h-2zm1 63h-64v2h64v-2z" mask="url(#BA)" class="C"/><mask id="BB" class="B"><path d="M704 256h64v64h-64v-64z"/></mask><path d="M768 320v1h1v-1h-1zm-1-64v64h2v-64h-2zm1 63h-64v2h64v-2z" mask="url(#BB)" class="C"/><mask id="BC" class="B"><path d="M768 256h64v64h-64v-64z"/></mask><path d="M832 320v1h1v-1h-1zm-1-64v64h2v-64h-2zm1 63h-64v2h64v-2z" mask="url(#BC)" class="C"/><mask id="BD" class="B"><path d="M832 256h64v64h-64v-64z"/></mask><path d="M832 256h64v64h-64v-64z" class="D"/><path d="M896 320v1h1v-1h-1zm-1-64v64h2v-64h-2zm1 63h-64v2h64v-2z" mask="url(#BD)" class="C"/><mask id="BE" class="B"><path d="M896 256h64v64h-64v-64z"/></mask><path d="M960 320v1h1v-1h-1zm-1-64v64h2v-64h-2zm1 63h-64v2h64v-2z" mask="url(#BE)" class="C"/><mask id="BF" class="B"><path d="M960 256h64v64h-64v-64z"/></mask><path d="M1024 320v1h1v-1h-1zm-1-64v64h2v-64h-2zm1 63h-64v2h64v-2z" mask="url(#BF)" class="C"/><mask id="BG" class="B"><path d="M1024 256h64v64h-64v-64z"/></mask><path d="M1088 320v1h1v-1h-1zm-1-64v64h2v-64h-2zm1 63h-64v2h64v-2z" mask="url(#BG)" class="C"/><mask id="BH" class="B"><path d="M1088 256h64v64h-64v-64z"/></mask><path d="M1152 320v1h1v-1h-1zm-1-64v64h2v-64h-2zm1 63h-64v2h64v-2z" mask="url(#BH)" class="C"/><mask id="BI" class="B"><path d="M1152 256h64v64h-64v-64z"/></mask><path d="M1216 320v1h1v-1h-1zm-1-64v64h2v-64h-2zm1 63h-64v2h64v-2z" mask="url(#BI)" class="C"/><mask id="BJ" class="B"><path d="M1216 256h64v64h-64v-64z"/></mask><path d="M1280 320v1h1v-1h-1zm-1-64v64h2v-64h-2zm1 63h-64v2h64v-2z" mask="url(#BJ)" class="C"/><mask id="BK" class="B"><path d="M1280 256h64v64h-64v-64z"/></mask><path d="M1344 320v1h1v-1h-1zm-1-64v64h2v-64h-2zm1 63h-64v2h64v-2z" mask="url(#BK)" class="C"/><mask id="BL" class="B"><path d="M1344 256h64v64h-64v-64z"/></mask><path d="M1408 320v1h1v-1h-1zm-1-64v64h2v-64h-2zm1 63h-64v2h64v-2z" mask="url(#BL)" class="C"/><mask id="BM" class="B"><path d="M1408 256h64v64h-64v-64z"/></mask><path d="M1472 320v1h1v-1h-1zm-1-64v64h2v-64h-2zm1 63h-64v2h64v-2z" mask="url(#BM)" class="C"/><mask id="BN" class="B"><path d="M1472 256h64v64h-64v-64z"/></mask><path d="M1536 320v1h1v-1h-1zm-1-64v64h2v-64h-2zm1 63h-64v2h64v-2z" mask="url(#BN)" class="C"/><mask id="BO" class="B"><path d="M1536 256h64v64h-64v-64z"/></mask><path d="M1536 256h64v64h-64v-64z" class="D"/><path d="M1600 320v1h1v-1h-1zm-1-64v64h2v-64h-2zm1 63h-64v2h64v-2z" mask="url(#BO)" class="C"/><mask id="BP" class="B"><path d="M1600 256h64v64h-64v-64z"/></mask><path d="M1664 320v1h1v-1h-1zm-1-64v64h2v-64h-2zm1 63h-64v2h64v-2z" mask="url(#BP)" class="C"/><mask id="BQ" class="B"><path d="M1664 256h64v64h-64v-64z"/></mask><path d="M1728 320v1h1v-1h-1zm-1-64v64h2v-64h-2zm1 63h-64v2h64v-2z" mask="url(#BQ)" class="C"/><mask id="BR" class="B"><path d="M192 320h64v64h-64v-64z"/></mask><path d="M256 384v1h1v-1h-1zm-1-64v64h2v-64h-2zm1 63h-64v2h64v-2z" mask="url(#BR)" class="C"/><mask id="BS" class="B"><path d="M256 320h64v64h-64v-64z"/></mask><path d="M320 384v1h1v-1h-1zm-1-64v64h2v-64h-2zm1 63h-64v2h64v-2z" mask="url(#BS)" class="C"/><mask id="BT" class="B"><path d="M320 320h64v64h-64v-64z"/></mask><path d="M384 384v1h1v-1h-1zm-1-64v64h2v-64h-2zm1 63h-64v2h64v-2z" mask="url(#BT)" class="C"/><mask id="BU" class="B"><path d="M384 320h64v64h-64v-64z"/></mask><path d="M448 384v1h1v-1h-1zm-1-64v64h2v-64h-2zm1 63h-64v2h64v-2z" mask="url(#BU)" class="C"/><mask id="BV" class="B"><path d="M448 320h64v64h-64v-64z"/></mask><path d="M512 384v1h1v-1h-1zm-1-64v64h2v-64h-2zm1 63h-64v2h64v-2z" mask="url(#BV)" class="C"/><mask id="BW" class="B"><path d="M512 320h64v64h-64v-64z"/></mask><path d="M576 384v1h1v-1h-1zm-1-64v64h2v-64h-2zm1 63h-64v2h64v-2z" mask="url(#BW)" class="C"/><mask id="BX" class="B"><path d="M576 320h64v64h-64v-64z"/></mask><path d="M640 384v1h1v-1h-1zm-1-64v64h2v-64h-2zm1 63h-64v2h64v-2z" mask="url(#BX)" class="C"/><mask id="BY" class="B"><path d="M640 320h64v64h-64v-64z"/></mask><path d="M704 384v1h1v-1h-1zm-1-64v64h2v-64h-2zm1 63h-64v2h64v-2z" mask="url(#BY)" class="C"/><mask id="BZ" class="B"><path d="M704 320h64v64h-64v-64z"/></mask><path d="M704 320h64v64h-64v-64z" class="D"/><path d="M768 384v1h1v-1h-1zm-1-64v64h2v-64h-2zm1 63h-64v2h64v-2z" mask="url(#BZ)" class="C"/><mask id="Ba" class="B"><path d="M768 320h64v64h-64v-64z"/></mask><path d="M832 384v1h1v-1h-1zm-1-64v64h2v-64h-2zm1 63h-64v2h64v-2z" mask="url(#Ba)" class="C"/><mask id="Bb" class="B"><path d="M832 320h64v64h-64v-64z"/></mask><path d="M896 384v1h1v-1h-1zm-1-64v64h2v-64h-2zm1 63h-64v2h64v-2z" mask="url(#Bb)" class="C"/><mask id="Bc" class="B"><path d="M896 320h64v64h-64v-64z"/></mask><path d="M960 384v1h1v-1h-1zm-1-64v64h2v-64h-2zm1 63h-64v2h64v-2z" mask="url(#Bc)" class="C"/><mask id="Bd" class="B"><path d="M960 320h64v64h-64v-64z"/></mask><path d="M1024 384v1h1v-1h-1zm-1-64v64h2v-64h-2zm1 63h-64v2h64v-2z" mask="url(#Bd)" class="C"/><mask id="Be" class="B"><path d="M1024 320h64v64h-64v-64z"/></mask><path d="M1088 384v1h1v-1h-1zm-1-64v64h2v-64h-2zm1 63h-64v2h64v-2z" mask="url(#Be)" class="C"/><mask id="Bf" class="B"><path d="M1088 320h64v64h-64v-64z"/></mask><path d="M1088 320h64v64h-64v-64z" class="D"/><path d="M1152 384v1h1v-1h-1zm-1-64v64h2v-64h-2zm1 63h-64v2h64v-2z" mask="url(#Bf)" class="C"/><mask id="Bg" class="B"><path d="M1152 320h64v64h-64v-64z"/></mask><path d="M1216 384v1h1v-1h-1zm-1-64v64h2v-64h-2zm1 63h-64v2h64v-2z" mask="url(#Bg)" class="C"/><mask id="Bh" class="B"><path d="M1216 320h64v64h-64v-64z"/></mask><path d="M1280 384v1h1v-1h-1zm-1-64v64h2v-64h-2zm1 63h-64v2h64v-2z" mask="url(#Bh)" class="C"/><mask id="Bi" class="B"><path d="M1280 320h64v64h-64v-64z"/></mask><path d="M1280 320h64v64h-64v-64z" class="D"/><path d="M1344 384v1h1v-1h-1zm-1-64v64h2v-64h-2zm1 63h-64v2h64v-2z" mask="url(#Bi)" class="C"/><mask id="Bj" class="B"><path d="M1344 320h64v64h-64v-64z"/></mask><path d="M1408 384v1h1v-1h-1zm-1-64v64h2v-64h-2zm1 63h-64v2h64v-2z" mask="url(#Bj)" class="C"/><mask id="Bk" class="B"><path d="M1408 320h64v64h-64v-64z"/></mask><path d="M1472 384v1h1v-1h-1zm-1-64v64h2v-64h-2zm1 63h-64v2h64v-2z" mask="url(#Bk)" class="C"/><mask id="Bl" class="B"><path d="M1472 320h64v64h-64v-64z"/></mask><path d="M1536 384v1h1v-1h-1zm-1-64v64h2v-64h-2zm1 63h-64v2h64v-2z" mask="url(#Bl)" class="C"/><mask id="Bm" class="B"><path d="M1536 320h64v64h-64v-64z"/></mask><path d="M1600 384v1h1v-1h-1zm-1-64v64h2v-64h-2zm1 63h-64v2h64v-2z" mask="url(#Bm)" class="C"/><mask id="Bn" class="B"><path d="M1600 320h64v64h-64v-64z"/></mask><path d="M1664 384v1h1v-1h-1zm-1-64v64h2v-64h-2zm1 63h-64v2h64v-2z" mask="url(#Bn)" class="C"/><mask id="Bo" class="B"><path d="M1664 320h64v64h-64v-64z"/></mask><path d="M1728 384v1h1v-1h-1zm-1-64v64h2v-64h-2zm1 63h-64v2h64v-2z" mask="url(#Bo)" class="C"/><mask id="Bp" class="B"><path d="M192 384h64v64h-64v-64z"/></mask><path d="M256 448v1h1v-1h-1zm-1-64v64h2v-64h-2zm1 63h-64v2h64v-2z" mask="url(#Bp)" class="C"/><mask id="Bq" class="B"><path d="M256 384h64v64h-64v-64z"/></mask><path d="M320 448v1h1v-1h-1zm-1-64v64h2v-64h-2zm1 63h-64v2h64v-2z" mask="url(#Bq)" class="C"/><mask id="Br" class="B"><path d="M320 384h64v64h-64v-64z"/></mask><path d="M384 448v1h1v-1h-1zm-1-64v64h2v-64h-2zm1 63h-64v2h64v-2z" mask="url(#Br)" class="C"/><mask id="Bs" class="B"><path d="M384 384h64v64h-64v-64z"/></mask><path d="M448 448v1h1v-1h-1zm-1-64v64h2v-64h-2zm1 63h-64v2h64v-2z" mask="url(#Bs)" class="C"/><mask id="Bt" class="B"><path d="M448 384h64v64h-64v-64z"/></mask><path d="M448 384h64v64h-64v-64z" class="D"/><path d="M512 448v1h1v-1h-1zm-1-64v64h2v-64h-2zm1 63h-64v2h64v-2z" mask="url(#Bt)" class="C"/><mask id="Bu" class="B"><path d="M512 384h64v64h-64v-64z"/></mask><path d="M576 448v1h1v-1h-1zm-1-64v64h2v-64h-2zm1 63h-64v2h64v-2z" mask="url(#Bu)" class="C"/><mask id="Bv" class="B"><path d="M576 384h64v64h-64v-64z"/></mask><path d="M640 448v1h1v-1h-1zm-1-64v64h2v-64h-2zm1 63h-64v2h64v-2z" mask="url(#Bv)" class="C"/><mask id="Bw" class="B"><path d="M640 384h64v64h-64v-64z"/></mask><path d="M704 448v1h1v-1h-1zm-1-64v64h2v-64h-2zm1 63h-64v2h64v-2z" mask="url(#Bw)" class="C"/><mask id="Bx" class="B"><path d="M704 384h64v64h-64v-64z"/></mask><path d="M768 448v1h1v-1h-1zm-1-64v64h2v-64h-2zm1 63h-64v2h64v-2z" mask="url(#Bx)" class="C"/><mask id="By" class="B"><path d="M768 384h64v64h-64v-64z"/></mask><path d="M832 448v1h1v-1h-1zm-1-64v64h2v-64h-2zm1 63h-64v2h64v-2z" mask="url(#By)" class="C"/><mask id="Bz" class="B"><path d="M832 384h64v64h-64v-64z"/></mask><path d="M896 448v1h1v-1h-1zm-1-64v64h2v-64h-2zm1 63h-64v2h64v-2z" mask="url(#Bz)" class="C"/><mask id="CA" class="B"><path d="M896 384h64v64h-64v-64z"/></mask><path d="M896 384h64v64h-64v-64z" class="D"/><path d="M960 448v1h1v-1h-1zm-1-64v64h2v-64h-2zm1 63h-64v2h64v-2z" mask="url(#CA)" class="C"/><mask id="CB" class="B"><path d="M960 384h64v64h-64v-64z"/></mask><path d="M1024 448v1h1v-1h-1zm-1-64v64h2v-64h-2zm1 63h-64v2h64v-2z" mask="url(#CB)" class="C"/><mask id="CC" class="B"><path d="M1024 384h64v64h-64v-64z"/></mask><path d="M1088 448v1h1v-1h-1zm-1-64v64h2v-64h-2zm1 63h-64v2h64v-2z" mask="url(#CC)" class="C"/><mask id="CD" class="B"><path d="M1088 384h64v64h-64v-64z"/></mask><path d="M1152 448v1h1v-1h-1zm-1-64v64h2v-64h-2zm1 63h-64v2h64v-2z" mask="url(#CD)" class="C"/><mask id="CE" class="B"><path d="M1152 384h64v64h-64v-64z"/></mask><path d="M1216 448v1h1v-1h-1zm-1-64v64h2v-64h-2zm1 63h-64v2h64v-2z" mask="url(#CE)" class="C"/><mask id="CF" class="B"><path d="M1216 384h64v64h-64v-64z"/></mask><path d="M1280 448v1h1v-1h-1zm-1-64v64h2v-64h-2zm1 63h-64v2h64v-2z" mask="url(#CF)" class="C"/><mask id="CG" class="B"><path d="M1280 384h64v64h-64v-64z"/></mask><path d="M1344 448v1h1v-1h-1zm-1-64v64h2v-64h-2zm1 63h-64v2h64v-2z" mask="url(#CG)" class="C"/><mask id="CH" class="B"><path d="M1344 384h64v64h-64v-64z"/></mask><path d="M1408 448v1h1v-1h-1zm-1-64v64h2v-64h-2zm1 63h-64v2h64v-2z" mask="url(#CH)" class="C"/><mask id="CI" class="B"><path d="M1408 384h64v64h-64v-64z"/></mask><path d="M1472 448v1h1v-1h-1zm-1-64v64h2v-64h-2zm1 63h-64v2h64v-2z" mask="url(#CI)" class="C"/><mask id="CJ" class="B"><path d="M1472 384h64v64h-64v-64z"/></mask><path d="M1472 384h64v64h-64v-64z" class="D"/><path d="M1536 448v1h1v-1h-1zm-1-64v64h2v-64h-2zm1 63h-64v2h64v-2z" mask="url(#CJ)" class="C"/><mask id="CK" class="B"><path d="M1536 384h64v64h-64v-64z"/></mask><path d="M1600 448v1h1v-1h-1zm-1-64v64h2v-64h-2zm1 63h-64v2h64v-2z" mask="url(#CK)" class="C"/><mask id="CL" class="B"><path d="M1600 384h64v64h-64v-64z"/></mask><path d="M1664 448v1h1v-1h-1zm-1-64v64h2v-64h-2zm1 63h-64v2h64v-2z" mask="url(#CL)" class="C"/><mask id="CM" class="B"><path d="M1664 384h64v64h-64v-64z"/></mask><path d="M1728 448v1h1v-1h-1zm-1-64v64h2v-64h-2zm1 63h-64v2h64v-2z" mask="url(#CM)" class="C"/><mask id="CN" class="B"><path d="M192 448h64v64h-64v-64z"/></mask><path d="M256 512v1h1v-1h-1zm-1-64v64h2v-64h-2zm1 63h-64v2h64v-2z" mask="url(#CN)" class="C"/><mask id="CO" class="B"><path d="M256 448h64v64h-64v-64z"/></mask><path d="M320 512v1h1v-1h-1zm-1-64v64h2v-64h-2zm1 63h-64v2h64v-2z" mask="url(#CO)" class="C"/><mask id="CP" class="B"><path d="M320 448h64v64h-64v-64z"/></mask><path d="M384 512v1h1v-1h-1zm-1-64v64h2v-64h-2zm1 63h-64v2h64v-2z" mask="url(#CP)" class="C"/><mask id="CQ" class="B"><path d="M384 448h64v64h-64v-64z"/></mask><path d="M448 512v1h1v-1h-1zm-1-64v64h2v-64h-2zm1 63h-64v2h64v-2z" mask="url(#CQ)" class="C"/><mask id="CR" class="B"><path d="M448 448h64v64h-64v-64z"/></mask><path d="M512 512v1h1v-1h-1zm-1-64v64h2v-64h-2zm1 63h-64v2h64v-2z" mask="url(#CR)" class="C"/><mask id="CS" class="B"><path d="M512 448h64v64h-64v-64z"/></mask><path d="M576 512v1h1v-1h-1zm-1-64v64h2v-64h-2zm1 63h-64v2h64v-2z" mask="url(#CS)" class="C"/><mask id="CT" class="B"><path d="M576 448h64v64h-64v-64z"/></mask><path d="M640 512v1h1v-1h-1zm-1-64v64h2v-64h-2zm1 63h-64v2h64v-2z" mask="url(#CT)" class="C"/><mask id="CU" class="B"><path d="M640 448h64v64h-64v-64z"/></mask><path d="M704 512v1h1v-1h-1zm-1-64v64h2v-64h-2zm1 63h-64v2h64v-2z" mask="url(#CU)" class="C"/><mask id="CV" class="B"><path d="M704 448h64v64h-64v-64z"/></mask><path d="M768 512v1h1v-1h-1zm-1-64v64h2v-64h-2zm1 63h-64v2h64v-2z" mask="url(#CV)" class="C"/><mask id="CW" class="B"><path d="M768 448h64v64h-64v-64z"/></mask><path d="M768 448h64v64h-64v-64z" class="D"/><path d="M832 512v1h1v-1h-1zm-1-64v64h2v-64h-2zm1 63h-64v2h64v-2z" mask="url(#CW)" class="C"/><mask id="CX" class="B"><path d="M832 448h64v64h-64v-64z"/></mask><path d="M896 512v1h1v-1h-1zm-1-64v64h2v-64h-2zm1 63h-64v2h64v-2z" mask="url(#CX)" class="C"/><mask id="CY" class="B"><path d="M896 448h64v64h-64v-64z"/></mask><path d="M960 512v1h1v-1h-1zm-1-64v64h2v-64h-2zm1 63h-64v2h64v-2z" mask="url(#CY)" class="C"/><mask id="CZ" class="B"><path d="M960 448h64v64h-64v-64z"/></mask><path d="M1024 512v1h1v-1h-1zm-1-64v64h2v-64h-2zm1 63h-64v2h64v-2z" mask="url(#CZ)" class="C"/><mask id="Ca" class="B"><path d="M1024 448h64v64h-64v-64z"/></mask><path d="M1088 512v1h1v-1h-1zm-1-64v64h2v-64h-2zm1 63h-64v2h64v-2z" mask="url(#Ca)" class="C"/><mask id="Cb" class="B"><path d="M1088 448h64v64h-64v-64z"/></mask><path d="M1152 512v1h1v-1h-1zm-1-64v64h2v-64h-2zm1 63h-64v2h64v-2z" mask="url(#Cb)" class="C"/><mask id="Cc" class="B"><path d="M1152 448h64v64h-64v-64z"/></mask><path d="M1152 448h64v64h-64v-64z" class="D"/><path d="M1216 512v1h1v-1h-1zm-1-64v64h2v-64h-2zm1 63h-64v2h64v-2z" mask="url(#Cc)" class="C"/><mask id="Cd" class="B"><path d="M1216 448h64v64h-64v-64z"/></mask><path d="M1280 512v1h1v-1h-1zm-1-64v64h2v-64h-2zm1 63h-64v2h64v-2z" mask="url(#Cd)" class="C"/><mask id="Ce" class="B"><path d="M1280 448h64v64h-64v-64z"/></mask><path d="M1344 512v1h1v-1h-1zm-1-64v64h2v-64h-2zm1 63h-64v2h64v-2z" mask="url(#Ce)" class="C"/><mask id="Cf" class="B"><path d="M1344 448h64v64h-64v-64z"/></mask><path d="M1408 512v1h1v-1h-1zm-1-64v64h2v-64h-2zm1 63h-64v2h64v-2z" mask="url(#Cf)" class="C"/><mask id="Cg" class="B"><path d="M1408 448h64v64h-64v-64z"/></mask><path d="M1472 512v1h1v-1h-1zm-1-64v64h2v-64h-2zm1 63h-64v2h64v-2z" mask="url(#Cg)" class="C"/><mask id="Ch" class="B"><path d="M1472 448h64v64h-64v-64z"/></mask><path d="M1536 512v1h1v-1h-1zm-1-64v64h2v-64h-2zm1 63h-64v2h64v-2z" mask="url(#Ch)" class="C"/><mask id="Ci" class="B"><path d="M1536 448h64v64h-64v-64z"/></mask><path d="M1600 512v1h1v-1h-1zm-1-64v64h2v-64h-2zm1 63h-64v2h64v-2z" mask="url(#Ci)" class="C"/><mask id="Cj" class="B"><path d="M1600 448h64v64h-64v-64z"/></mask><path d="M1664 512v1h1v-1h-1zm-1-64v64h2v-64h-2zm1 63h-64v2h64v-2z" mask="url(#Cj)" class="C"/><mask id="Ck" class="B"><path d="M1664 448h64v64h-64v-64z"/></mask><path d="M1664 448h64v64h-64v-64z" class="D"/><path d="M1728 512v1h1v-1h-1zm-1-64v64h2v-64h-2zm1 63h-64v2h64v-2z" mask="url(#Ck)" class="C"/><mask id="Cl" class="B"><path d="M192 512h64v64h-64v-64z"/></mask><path d="M256 576v1h1v-1h-1zm-1-64v64h2v-64h-2zm1 63h-64v2h64v-2z" mask="url(#Cl)" class="C"/><mask id="Cm" class="B"><path d="M256 512h64v64h-64v-64z"/></mask><path d="M320 576v1h1v-1h-1zm-1-64v64h2v-64h-2zm1 63h-64v2h64v-2z" mask="url(#Cm)" class="C"/><mask id="Cn" class="B"><path d="M320 512h64v64h-64v-64z"/></mask><path d="M320 512h64v64h-64v-64z" class="D"/><path d="M384 576v1h1v-1h-1zm-1-64v64h2v-64h-2zm1 63h-64v2h64v-2z" mask="url(#Cn)" class="C"/><mask id="Co" class="B"><path d="M384 512h64v64h-64v-64z"/></mask><path d="M448 576v1h1v-1h-1zm-1-64v64h2v-64h-2zm1 63h-64v2h64v-2z" mask="url(#Co)" class="C"/><mask id="Cp" class="B"><path d="M448 512h64v64h-64v-64z"/></mask><path d="M512 576v1h1v-1h-1zm-1-64v64h2v-64h-2zm1 63h-64v2h64v-2z" mask="url(#Cp)" class="C"/><mask id="Cq" class="B"><path d="M512 512h64v64h-64v-64z"/></mask><path d="M576 576v1h1v-1h-1zm-1-64v64h2v-64h-2zm1 63h-64v2h64v-2z" mask="url(#Cq)" class="C"/><mask id="Cr" class="B"><path d="M576 512h64v64h-64v-64z"/></mask><path d="M640 576v1h1v-1h-1zm-1-64v64h2v-64h-2zm1 63h-64v2h64v-2z" mask="url(#Cr)" class="C"/><mask id="Cs" class="B"><path d="M640 512h64v64h-64v-64z"/></mask><path d="M640 512h64v64h-64v-64z" class="D"/><path d="M704 576v1h1v-1h-1zm-1-64v64h2v-64h-2zm1 63h-64v2h64v-2z" mask="url(#Cs)" class="C"/><mask id="Ct" class="B"><path d="M704 512h64v64h-64v-64z"/></mask><path d="M768 576v1h1v-1h-1zm-1-64v64h2v-64h-2zm1 63h-64v2h64v-2z" mask="url(#Ct)" class="C"/><mask id="Cu" class="B"><path d="M768 512h64v64h-64v-64z"/></mask><path d="M832 576v1h1v-1h-1zm-1-64v64h2v-64h-2zm1 63h-64v2h64v-2z" mask="url(#Cu)" class="C"/><mask id="Cv" class="B"><path d="M832 512h64v64h-64v-64z"/></mask><path d="M896 576v1h1v-1h-1zm-1-64v64h2v-64h-2zm1 63h-64v2h64v-2z" mask="url(#Cv)" class="C"/><mask id="Cw" class="B"><path d="M896 512h64v64h-64v-64z"/></mask><path d="M960 576v1h1v-1h-1zm-1-64v64h2v-64h-2zm1 63h-64v2h64v-2z" mask="url(#Cw)" class="C"/><mask id="Cx" class="B"><path d="M960 512h64v64h-64v-64z"/></mask><path d="M1024 576v1h1v-1h-1zm-1-64v64h2v-64h-2zm1 63h-64v2h64v-2z" mask="url(#Cx)" class="C"/><mask id="Cy" class="B"><path d="M1024 512h64v64h-64v-64z"/></mask><path d="M1088 576v1h1v-1h-1zm-1-64v64h2v-64h-2zm1 63h-64v2h64v-2z" mask="url(#Cy)" class="C"/><mask id="Cz" class="B"><path d="M1088 512h64v64h-64v-64z"/></mask><path d="M1152 576v1h1v-1h-1zm-1-64v64h2v-64h-2zm1 63h-64v2h64v-2z" mask="url(#Cz)" class="C"/><mask id="DA" class="B"><path d="M1152 512h64v64h-64v-64z"/></mask><path d="M1216 576v1h1v-1h-1zm-1-64v64h2v-64h-2zm1 63h-64v2h64v-2z" mask="url(#DA)" class="C"/><mask id="DB" class="B"><path d="M1216 512h64v64h-64v-64z"/></mask><path d="M1280 576v1h1v-1h-1zm-1-64v64h2v-64h-2zm1 63h-64v2h64v-2z" mask="url(#DB)" class="C"/><mask id="DC" class="B"><path d="M1280 512h64v64h-64v-64z"/></mask><path d="M1344 576v1h1v-1h-1zm-1-64v64h2v-64h-2zm1 63h-64v2h64v-2z" mask="url(#DC)" class="C"/><mask id="DD" class="B"><path d="M1344 512h64v64h-64v-64z"/></mask><path d="M1344 512h64v64h-64v-64z" class="D"/><path d="M1408 576v1h1v-1h-1zm-1-64v64h2v-64h-2zm1 63h-64v2h64v-2z" mask="url(#DD)" class="C"/><mask id="DE" class="B"><path d="M1408 512h64v64h-64v-64z"/></mask><path d="M1472 576v1h1v-1h-1zm-1-64v64h2v-64h-2zm1 63h-64v2h64v-2z" mask="url(#DE)" class="C"/><mask id="DF" class="B"><path d="M1472 512h64v64h-64v-64z"/></mask><path d="M1536 576v1h1v-1h-1zm-1-64v64h2v-64h-2zm1 63h-64v2h64v-2z" mask="url(#DF)" class="C"/><mask id="DG" class="B"><path d="M1536 512h64v64h-64v-64z"/></mask><path d="M1600 576v1h1v-1h-1zm-1-64v64h2v-64h-2zm1 63h-64v2h64v-2z" mask="url(#DG)" class="C"/><mask id="DH" class="B"><path d="M1600 512h64v64h-64v-64z"/></mask><path d="M1664 576v1h1v-1h-1zm-1-64v64h2v-64h-2zm1 63h-64v2h64v-2z" mask="url(#DH)" class="C"/><mask id="DI" class="B"><path d="M1664 512h64v64h-64v-64z"/></mask><path d="M1728 576v1h1v-1h-1zm-1-64v64h2v-64h-2zm1 63h-64v2h64v-2z" mask="url(#DI)" class="C"/><mask id="DJ" class="B"><path d="M192 576h64v64h-64v-64z"/></mask><path d="M256 640v1h1v-1h-1zm-1-64v64h2v-64h-2zm1 63h-64v2h64v-2z" mask="url(#DJ)" class="C"/><mask id="DK" class="B"><path d="M256 576h64v64h-64v-64z"/></mask><path d="M320 640v1h1v-1h-1zm-1-64v64h2v-64h-2zm1 63h-64v2h64v-2z" mask="url(#DK)" class="C"/><mask id="DL" class="B"><path d="M320 576h64v64h-64v-64z"/></mask><path d="M384 640v1h1v-1h-1zm-1-64v64h2v-64h-2zm1 63h-64v2h64v-2z" mask="url(#DL)" class="C"/><mask id="DM" class="B"><path d="M384 576h64v64h-64v-64z"/></mask><path d="M448 640v1h1v-1h-1zm-1-64v64h2v-64h-2zm1 63h-64v2h64v-2z" mask="url(#DM)" class="C"/><mask id="DN" class="B"><path d="M448 576h64v64h-64v-64z"/></mask><path d="M448 576h64v64h-64v-64z" class="D"/><path d="M512 640v1h1v-1h-1zm-1-64v64h2v-64h-2zm1 63h-64v2h64v-2z" mask="url(#DN)" class="C"/><mask id="DO" class="B"><path d="M512 576h64v64h-64v-64z"/></mask><path d="M576 640v1h1v-1h-1zm-1-64v64h2v-64h-2zm1 63h-64v2h64v-2z" mask="url(#DO)" class="C"/><mask id="DP" class="B"><path d="M576 576h64v64h-64v-64z"/></mask><path d="M640 640v1h1v-1h-1zm-1-64v64h2v-64h-2zm1 63h-64v2h64v-2z" mask="url(#DP)" class="C"/><mask id="DQ" class="B"><path d="M640 576h64v64h-64v-64z"/></mask><path d="M704 640v1h1v-1h-1zm-1-64v64h2v-64h-2zm1 63h-64v2h64v-2z" mask="url(#DQ)" class="C"/><mask id="DR" class="B"><path d="M704 576h64v64h-64v-64z"/></mask><path d="M768 640v1h1v-1h-1zm-1-64v64h2v-64h-2zm1 63h-64v2h64v-2z" mask="url(#DR)" class="C"/><mask id="DS" class="B"><path d="M768 576h64v64h-64v-64z"/></mask><path d="M832 640v1h1v-1h-1zm-1-64v64h2v-64h-2zm1 63h-64v2h64v-2z" mask="url(#DS)" class="C"/><mask id="DT" class="B"><path d="M832 576h64v64h-64v-64z"/></mask><path d="M896 640v1h1v-1h-1zm-1-64v64h2v-64h-2zm1 63h-64v2h64v-2z" mask="url(#DT)" class="C"/><mask id="DU" class="B"><path d="M896 576h64v64h-64v-64z"/></mask><path d="M896 576h64v64h-64v-64z" class="D"/><path d="M960 640v1h1v-1h-1zm-1-64v64h2v-64h-2zm1 63h-64v2h64v-2z" mask="url(#DU)" class="C"/><mask id="DV" class="B"><path d="M960 576h64v64h-64v-64z"/></mask><path d="M1024 640v1h1v-1h-1zm-1-64v64h2v-64h-2zm1 63h-64v2h64v-2z" mask="url(#DV)" class="C"/><mask id="DW" class="B"><path d="M1024 576h64v64h-64v-64z"/></mask><path d="M1088 640v1h1v-1h-1zm-1-64v64h2v-64h-2zm1 63h-64v2h64v-2z" mask="url(#DW)" class="C"/><mask id="DX" class="B"><path d="M1088 576h64v64h-64v-64z"/></mask><path d="M1152 640v1h1v-1h-1zm-1-64v64h2v-64h-2zm1 63h-64v2h64v-2z" mask="url(#DX)" class="C"/><mask id="DY" class="B"><path d="M1152 576h64v64h-64v-64z"/></mask><path d="M1216 640v1h1v-1h-1zm-1-64v64h2v-64h-2zm1 63h-64v2h64v-2z" mask="url(#DY)" class="C"/><mask id="DZ" class="B"><path d="M1216 576h64v64h-64v-64z"/></mask><path d="M1280 640v1h1v-1h-1zm-1-64v64h2v-64h-2zm1 63h-64v2h64v-2z" mask="url(#DZ)" class="C"/><mask id="Da" class="B"><path d="M1280 576h64v64h-64v-64z"/></mask><path d="M1344 640v1h1v-1h-1zm-1-64v64h2v-64h-2zm1 63h-64v2h64v-2z" mask="url(#Da)" class="C"/><mask id="Db" class="B"><path d="M1344 576h64v64h-64v-64z"/></mask><path d="M1408 640v1h1v-1h-1zm-1-64v64h2v-64h-2zm1 63h-64v2h64v-2z" mask="url(#Db)" class="C"/><mask id="Dc" class="B"><path d="M1408 576h64v64h-64v-64z"/></mask><path d="M1472 640v1h1v-1h-1zm-1-64v64h2v-64h-2zm1 63h-64v2h64v-2z" mask="url(#Dc)" class="C"/><mask id="Dd" class="B"><path d="M1472 576h64v64h-64v-64z"/></mask><path d="M1536 640v1h1v-1h-1zm-1-64v64h2v-64h-2zm1 63h-64v2h64v-2z" mask="url(#Dd)" class="C"/><mask id="De" class="B"><path d="M1536 576h64v64h-64v-64z"/></mask><path d="M1600 640v1h1v-1h-1zm-1-64v64h2v-64h-2zm1 63h-64v2h64v-2z" mask="url(#De)" class="C"/><mask id="Df" class="B"><path d="M1600 576h64v64h-64v-64z"/></mask><path d="M1600 576h64v64h-64v-64z" class="D"/><path d="M1664 640v1h1v-1h-1zm-1-64v64h2v-64h-2zm1 63h-64v2h64v-2z" mask="url(#Df)" class="C"/><mask id="Dg" class="B"><path d="M1664 576h64v64h-64v-64z"/></mask><path d="M1728 640v1h1v-1h-1zm-1-64v64h2v-64h-2zm1 63h-64v2h64v-2z" mask="url(#Dg)" class="C"/><mask id="Dh" class="B"><path d="M192 640h64v64h-64v-64z"/></mask><path d="M192 640h64v64h-64v-64z" class="D"/><path d="M256 704v1h1v-1h-1zm-1-64v64h2v-64h-2zm1 63h-64v2h64v-2z" mask="url(#Dh)" class="C"/><mask id="Di" class="B"><path d="M256 640h64v64h-64v-64z"/></mask><path d="M320 704v1h1v-1h-1zm-1-64v64h2v-64h-2zm1 63h-64v2h64v-2z" mask="url(#Di)" class="C"/><mask id="Dj" class="B"><path d="M320 640h64v64h-64v-64z"/></mask><path d="M384 704v1h1v-1h-1zm-1-64v64h2v-64h-2zm1 63h-64v2h64v-2z" mask="url(#Dj)" class="C"/><mask id="Dk" class="B"><path d="M384 640h64v64h-64v-64z"/></mask><path d="M448 704v1h1v-1h-1zm-1-64v64h2v-64h-2zm1 63h-64v2h64v-2z" mask="url(#Dk)" class="C"/><mask id="Dl" class="B"><path d="M448 640h64v64h-64v-64z"/></mask><path d="M512 704v1h1v-1h-1zm-1-64v64h2v-64h-2zm1 63h-64v2h64v-2z" mask="url(#Dl)" class="C"/><mask id="Dm" class="B"><path d="M512 640h64v64h-64v-64z"/></mask><path d="M576 704v1h1v-1h-1zm-1-64v64h2v-64h-2zm1 63h-64v2h64v-2z" mask="url(#Dm)" class="C"/><mask id="Dn" class="B"><path d="M576 640h64v64h-64v-64z"/></mask><path d="M640 704v1h1v-1h-1zm-1-64v64h2v-64h-2zm1 63h-64v2h64v-2z" mask="url(#Dn)" class="C"/><mask id="Do" class="B"><path d="M640 640h64v64h-64v-64z"/></mask><path d="M704 704v1h1v-1h-1zm-1-64v64h2v-64h-2zm1 63h-64v2h64v-2z" mask="url(#Do)" class="C"/><mask id="Dp" class="B"><path d="M704 640h64v64h-64v-64z"/></mask><path d="M768 704v1h1v-1h-1zm-1-64v64h2v-64h-2zm1 63h-64v2h64v-2z" mask="url(#Dp)" class="C"/><mask id="Dq" class="B"><path d="M768 640h64v64h-64v-64z"/></mask><path d="M768 640h64v64h-64v-64z" class="D"/><path d="M832 704v1h1v-1h-1zm-1-64v64h2v-64h-2zm1 63h-64v2h64v-2z" mask="url(#Dq)" class="C"/><mask id="Dr" class="B"><path d="M832 640h64v64h-64v-64z"/></mask><path d="M896 704v1h1v-1h-1zm-1-64v64h2v-64h-2zm1 63h-64v2h64v-2z" mask="url(#Dr)" class="C"/><mask id="Ds" class="B"><path d="M896 640h64v64h-64v-64z"/></mask><path d="M960 704v1h1v-1h-1zm-1-64v64h2v-64h-2zm1 63h-64v2h64v-2z" mask="url(#Ds)" class="C"/><mask id="Dt" class="B"><path d="M960 640h64v64h-64v-64z"/></mask><path d="M1024 704v1h1v-1h-1zm-1-64v64h2v-64h-2zm1 63h-64v2h64v-2z" mask="url(#Dt)" class="C"/><mask id="Du" class="B"><path d="M1024 640h64v64h-64v-64z"/></mask><path d="M1088 704v1h1v-1h-1zm-1-64v64h2v-64h-2zm1 63h-64v2h64v-2z" mask="url(#Du)" class="C"/><mask id="Dv" class="B"><path d="M1088 640h64v64h-64v-64z"/></mask><path d="M1152 704v1h1v-1h-1zm-1-64v64h2v-64h-2zm1 63h-64v2h64v-2z" mask="url(#Dv)" class="C"/><mask id="Dw" class="B"><path d="M1152 640h64v64h-64v-64z"/></mask><path d="M1216 704v1h1v-1h-1zm-1-64v64h2v-64h-2zm1 63h-64v2h64v-2z" mask="url(#Dw)" class="C"/><mask id="Dx" class="B"><path d="M1216 640h64v64h-64v-64z"/></mask><path d="M1216 640h64v64h-64v-64z" class="D"/><path d="M1280 704v1h1v-1h-1zm-1-64v64h2v-64h-2zm1 63h-64v2h64v-2z" mask="url(#Dx)" class="C"/><mask id="Dy" class="B"><path d="M1280 640h64v64h-64v-64z"/></mask><path d="M1344 704v1h1v-1h-1zm-1-64v64h2v-64h-2zm1 63h-64v2h64v-2z" mask="url(#Dy)" class="C"/><mask id="Dz" class="B"><path d="M1344 640h64v64h-64v-64z"/></mask><path d="M1408 704v1h1v-1h-1zm-1-64v64h2v-64h-2zm1 63h-64v2h64v-2z" mask="url(#Dz)" class="C"/><mask id="EA" class="B"><path d="M1408 640h64v64h-64v-64z"/></mask><path d="M1472 704v1h1v-1h-1zm-1-64v64h2v-64h-2zm1 63h-64v2h64v-2z" mask="url(#EA)" class="C"/><mask id="EB" class="B"><path d="M1472 640h64v64h-64v-64z"/></mask><path d="M1536 704v1h1v-1h-1zm-1-64v64h2v-64h-2zm1 63h-64v2h64v-2z" mask="url(#EB)" class="C"/><mask id="EC" class="B"><path d="M1536 640h64v64h-64v-64z"/></mask><path d="M1600 704v1h1v-1h-1zm-1-64v64h2v-64h-2zm1 63h-64v2h64v-2z" mask="url(#EC)" class="C"/><mask id="ED" class="B"><path d="M1600 640h64v64h-64v-64z"/></mask><path d="M1664 704v1h1v-1h-1zm-1-64v64h2v-64h-2zm1 63h-64v2h64v-2z" mask="url(#ED)" class="C"/><mask id="EE" class="B"><path d="M1664 640h64v64h-64v-64z"/></mask><path d="M1728 704v1h1v-1h-1zm-1-64v64h2v-64h-2zm1 63h-64v2h64v-2z" mask="url(#EE)" class="C"/><mask id="EF" class="B"><path d="M192 704h64v64h-64v-64z"/></mask><path d="M256 768v1h1v-1h-1zm-1-64v64h2v-64h-2zm1 63h-64v2h64v-2z" mask="url(#EF)" class="C"/><mask id="EG" class="B"><path d="M256 704h64v64h-64v-64z"/></mask><path d="M320 768v1h1v-1h-1zm-1-64v64h2v-64h-2zm1 63h-64v2h64v-2z" mask="url(#EG)" class="C"/><mask id="EH" class="B"><path d="M320 704h64v64h-64v-64z"/></mask><path d="M384 768v1h1v-1h-1zm-1-64v64h2v-64h-2zm1 63h-64v2h64v-2z" mask="url(#EH)" class="C"/><mask id="EI" class="B"><path d="M384 704h64v64h-64v-64z"/></mask><path d="M384 704h64v64h-64v-64z" class="D"/><path d="M448 768v1h1v-1h-1zm-1-64v64h2v-64h-2zm1 63h-64v2h64v-2z" mask="url(#EI)" class="C"/><mask id="EJ" class="B"><path d="M448 704h64v64h-64v-64z"/></mask><path d="M512 768v1h1v-1h-1zm-1-64v64h2v-64h-2zm1 63h-64v2h64v-2z" mask="url(#EJ)" class="C"/><mask id="EK" class="B"><path d="M512 704h64v64h-64v-64z"/></mask><path d="M576 768v1h1v-1h-1zm-1-64v64h2v-64h-2zm1 63h-64v2h64v-2z" mask="url(#EK)" class="C"/><mask id="EL" class="B"><path d="M576 704h64v64h-64v-64z"/></mask><path d="M640 768v1h1v-1h-1zm-1-64v64h2v-64h-2zm1 63h-64v2h64v-2z" mask="url(#EL)" class="C"/><mask id="EM" class="B"><path d="M640 704h64v64h-64v-64z"/></mask><path d="M704 768v1h1v-1h-1zm-1-64v64h2v-64h-2zm1 63h-64v2h64v-2z" mask="url(#EM)" class="C"/><mask id="EN" class="B"><path d="M704 704h64v64h-64v-64z"/></mask><path d="M768 768v1h1v-1h-1zm-1-64v64h2v-64h-2zm1 63h-64v2h64v-2z" mask="url(#EN)" class="C"/><mask id="EO" class="B"><path d="M768 704h64v64h-64v-64z"/></mask><path d="M832 768v1h1v-1h-1zm-1-64v64h2v-64h-2zm1 63h-64v2h64v-2z" mask="url(#EO)" class="C"/><mask id="EP" class="B"><path d="M832 704h64v64h-64v-64z"/></mask><path d="M896 768v1h1v-1h-1zm-1-64v64h2v-64h-2zm1 63h-64v2h64v-2z" mask="url(#EP)" class="C"/><mask id="EQ" class="B"><path d="M896 704h64v64h-64v-64z"/></mask><path d="M960 768v1h1v-1h-1zm-1-64v64h2v-64h-2zm1 63h-64v2h64v-2z" mask="url(#EQ)" class="C"/><mask id="ER" class="B"><path d="M960 704h64v64h-64v-64z"/></mask><path d="M1024 768v1h1v-1h-1zm-1-64v64h2v-64h-2zm1 63h-64v2h64v-2z" mask="url(#ER)" class="C"/><mask id="ES" class="B"><path d="M1024 704h64v64h-64v-64z"/></mask><path d="M1024 704h64v64h-64v-64z" class="D"/><path d="M1088 768v1h1v-1h-1zm-1-64v64h2v-64h-2zm1 63h-64v2h64v-2z" mask="url(#ES)" class="C"/><mask id="ET" class="B"><path d="M1088 704h64v64h-64v-64z"/></mask><path d="M1152 768v1h1v-1h-1zm-1-64v64h2v-64h-2zm1 63h-64v2h64v-2z" mask="url(#ET)" class="C"/><mask id="EU" class="B"><path d="M1152 704h64v64h-64v-64z"/></mask><path d="M1216 768v1h1v-1h-1zm-1-64v64h2v-64h-2zm1 63h-64v2h64v-2z" mask="url(#EU)" class="C"/><mask id="EV" class="B"><path d="M1216 704h64v64h-64v-64z"/></mask><path d="M1280 768v1h1v-1h-1zm-1-64v64h2v-64h-2zm1 63h-64v2h64v-2z" mask="url(#EV)" class="C"/><mask id="EW" class="B"><path d="M1280 704h64v64h-64v-64z"/></mask><path d="M1344 768v1h1v-1h-1zm-1-64v64h2v-64h-2zm1 63h-64v2h64v-2z" mask="url(#EW)" class="C"/><mask id="EX" class="B"><path d="M1344 704h64v64h-64v-64z"/></mask><path d="M1344 704h64v64h-64v-64z" class="D"/><path d="M1408 768v1h1v-1h-1zm-1-64v64h2v-64h-2zm1 63h-64v2h64v-2z" mask="url(#EX)" class="C"/><mask id="EY" class="B"><path d="M1408 704h64v64h-64v-64z"/></mask><path d="M1472 768v1h1v-1h-1zm-1-64v64h2v-64h-2zm1 63h-64v2h64v-2z" mask="url(#EY)" class="C"/><mask id="EZ" class="B"><path d="M1472 704h64v64h-64v-64z"/></mask><path d="M1536 768v1h1v-1h-1zm-1-64v64h2v-64h-2zm1 63h-64v2h64v-2z" mask="url(#EZ)" class="C"/><mask id="Ea" class="B"><path d="M1536 704h64v64h-64v-64z"/></mask><path d="M1600 768v1h1v-1h-1zm-1-64v64h2v-64h-2zm1 63h-64v2h64v-2z" mask="url(#Ea)" class="C"/><mask id="Eb" class="B"><path d="M1600 704h64v64h-64v-64z"/></mask><path d="M1664 768v1h1v-1h-1zm-1-64v64h2v-64h-2zm1 63h-64v2h64v-2z" mask="url(#Eb)" class="C"/><mask id="Ec" class="B"><path d="M1664 704h64v64h-64v-64z"/></mask><path d="M1728 768v1h1v-1h-1zm-1-64v64h2v-64h-2zm1 63h-64v2h64v-2z" mask="url(#Ec)" class="C"/><mask id="Ed" class="B"><path d="M192 768h64v64h-64v-64z"/></mask><path d="M256 832v1h1v-1h-1zm-1-64v64h2v-64h-2zm1 63h-64v2h64v-2z" mask="url(#Ed)" class="C"/><mask id="Ee" class="B"><path d="M256 768h64v64h-64v-64z"/></mask><path d="M256 768h64v64h-64v-64z" class="D"/><path d="M320 832v1h1v-1h-1zm-1-64v64h2v-64h-2zm1 63h-64v2h64v-2z" mask="url(#Ee)" class="C"/><mask id="Ef" class="B"><path d="M320 768h64v64h-64v-64z"/></mask><path d="M384 832v1h1v-1h-1zm-1-64v64h2v-64h-2zm1 63h-64v2h64v-2z" mask="url(#Ef)" class="C"/><mask id="Eg" class="B"><path d="M384 768h64v64h-64v-64z"/></mask><path d="M448 832v1h1v-1h-1zm-1-64v64h2v-64h-2zm1 63h-64v2h64v-2z" mask="url(#Eg)" class="C"/><mask id="Eh" class="B"><path d="M448 768h64v64h-64v-64z"/></mask><path d="M512 832v1h1v-1h-1zm-1-64v64h2v-64h-2zm1 63h-64v2h64v-2z" mask="url(#Eh)" class="C"/><mask id="Ei" class="B"><path d="M512 768h64v64h-64v-64z"/></mask><path d="M576 832v1h1v-1h-1zm-1-64v64h2v-64h-2zm1 63h-64v2h64v-2z" mask="url(#Ei)" class="C"/><mask id="Ej" class="B"><path d="M576 768h64v64h-64v-64z"/></mask><path d="M640 832v1h1v-1h-1zm-1-64v64h2v-64h-2zm1 63h-64v2h64v-2z" mask="url(#Ej)" class="C"/><mask id="Ek" class="B"><path d="M640 768h64v64h-64v-64z"/></mask><path d="M704 832v1h1v-1h-1zm-1-64v64h2v-64h-2zm1 63h-64v2h64v-2z" mask="url(#Ek)" class="C"/><mask id="El" class="B"><path d="M704 768h64v64h-64v-64z"/></mask><path d="M768 832v1h1v-1h-1zm-1-64v64h2v-64h-2zm1 63h-64v2h64v-2z" mask="url(#El)" class="C"/><mask id="Em" class="B"><path d="M768 768h64v64h-64v-64z"/></mask><path d="M768 768h64v64h-64v-64z" class="D"/><path d="M832 832v1h1v-1h-1zm-1-64v64h2v-64h-2zm1 63h-64v2h64v-2z" mask="url(#Em)" class="C"/><mask id="En" class="B"><path d="M832 768h64v64h-64v-64z"/></mask><path d="M896 832v1h1v-1h-1zm-1-64v64h2v-64h-2zm1 63h-64v2h64v-2z" mask="url(#En)" class="C"/><mask id="Eo" class="B"><path d="M896 768h64v64h-64v-64z"/></mask><path d="M960 832v1h1v-1h-1zm-1-64v64h2v-64h-2zm1 63h-64v2h64v-2z" mask="url(#Eo)" class="C"/><mask id="Ep" class="B"><path d="M960 768h64v64h-64v-64z"/></mask><path d="M1024 832v1h1v-1h-1zm-1-64v64h2v-64h-2zm1 63h-64v2h64v-2z" mask="url(#Ep)" class="C"/><mask id="Eq" class="B"><path d="M1024 768h64v64h-64v-64z"/></mask><path d="M1088 832v1h1v-1h-1zm-1-64v64h2v-64h-2zm1 63h-64v2h64v-2z" mask="url(#Eq)" class="C"/><mask id="Er" class="B"><path d="M1088 768h64v64h-64v-64z"/></mask><path d="M1152 832v1h1v-1h-1zm-1-64v64h2v-64h-2zm1 63h-64v2h64v-2z" mask="url(#Er)" class="C"/><mask id="Es" class="B"><path d="M1152 768h64v64h-64v-64z"/></mask><path d="M1216 832v1h1v-1h-1zm-1-64v64h2v-64h-2zm1 63h-64v2h64v-2z" mask="url(#Es)" class="C"/><mask id="Et" class="B"><path d="M1216 768h64v64h-64v-64z"/></mask><path d="M1280 832v1h1v-1h-1zm-1-64v64h2v-64h-2zm1 63h-64v2h64v-2z" mask="url(#Et)" class="C"/><mask id="Eu" class="B"><path d="M1280 768h64v64h-64v-64z"/></mask><path d="M1344 832v1h1v-1h-1zm-1-64v64h2v-64h-2zm1 63h-64v2h64v-2z" mask="url(#Eu)" class="C"/><mask id="Ev" class="B"><path d="M1344 768h64v64h-64v-64z"/></mask><path d="M1408 832v1h1v-1h-1zm-1-64v64h2v-64h-2zm1 63h-64v2h64v-2z" mask="url(#Ev)" class="C"/><mask id="Ew" class="B"><path d="M1408 768h64v64h-64v-64z"/></mask><path d="M1472 832v1h1v-1h-1zm-1-64v64h2v-64h-2zm1 63h-64v2h64v-2z" mask="url(#Ew)" class="C"/><mask id="Ex" class="B"><path d="M1472 768h64v64h-64v-64z"/></mask><path d="M1536 832v1h1v-1h-1zm-1-64v64h2v-64h-2zm1 63h-64v2h64v-2z" mask="url(#Ex)" class="C"/><mask id="Ey" class="B"><path d="M1536 768h64v64h-64v-64z"/></mask><path d="M1536 768h64v64h-64v-64z" class="D"/><path d="M1600 832v1h1v-1h-1zm-1-64v64h2v-64h-2zm1 63h-64v2h64v-2z" mask="url(#Ey)" class="C"/><mask id="Ez" class="B"><path d="M1600 768h64v64h-64v-64z"/></mask><path d="M1664 832v1h1v-1h-1zm-1-64v64h2v-64h-2zm1 63h-64v2h64v-2z" mask="url(#Ez)" class="C"/><mask id="FA" class="B"><path d="M1664 768h64v64h-64v-64z"/></mask><path d="M1728 832v1h1v-1h-1zm-1-64v64h2v-64h-2zm1 63h-64v2h64v-2z" mask="url(#FA)" class="C"/><mask id="FB" class="B"><path d="M192 832h64v64h-64v-64z"/></mask><path d="M256 896v1h1v-1h-1zm-1-64v64h2v-64h-2zm1 63h-64v2h64v-2z" mask="url(#FB)" class="C"/><mask id="FC" class="B"><path d="M256 832h64v64h-64v-64z"/></mask><path d="M320 896v1h1v-1h-1zm-1-64v64h2v-64h-2zm1 63h-64v2h64v-2z" mask="url(#FC)" class="C"/><mask id="FD" class="B"><path d="M320 832h64v64h-64v-64z"/></mask><path d="M384 896v1h1v-1h-1zm-1-64v64h2v-64h-2zm1 63h-64v2h64v-2z" mask="url(#FD)" class="C"/><mask id="FE" class="B"><path d="M384 832h64v64h-64v-64z"/></mask><path d="M448 896v1h1v-1h-1zm-1-64v64h2v-64h-2zm1 63h-64v2h64v-2z" mask="url(#FE)" class="C"/><mask id="FF" class="B"><path d="M448 832h64v64h-64v-64z"/></mask><path d="M512 896v1h1v-1h-1zm-1-64v64h2v-64h-2zm1 63h-64v2h64v-2z" mask="url(#FF)" class="C"/><mask id="FG" class="B"><path d="M512 832h64v64h-64v-64z"/></mask><path d="M576 896v1h1v-1h-1zm-1-64v64h2v-64h-2zm1 63h-64v2h64v-2z" mask="url(#FG)" class="C"/><mask id="FH" class="B"><path d="M576 832h64v64h-64v-64z"/></mask><path d="M576 832h64v64h-64v-64z" class="D"/><path d="M640 896v1h1v-1h-1zm-1-64v64h2v-64h-2zm1 63h-64v2h64v-2z" mask="url(#FH)" class="C"/><mask id="FI" class="B"><path d="M640 832h64v64h-64v-64z"/></mask><path d="M704 896v1h1v-1h-1zm-1-64v64h2v-64h-2zm1 63h-64v2h64v-2z" mask="url(#FI)" class="C"/><mask id="FJ" class="B"><path d="M704 832h64v64h-64v-64z"/></mask><path d="M768 896v1h1v-1h-1zm-1-64v64h2v-64h-2zm1 63h-64v2h64v-2z" mask="url(#FJ)" class="C"/><mask id="FK" class="B"><path d="M768 832h64v64h-64v-64z"/></mask><path d="M832 896v1h1v-1h-1zm-1-64v64h2v-64h-2zm1 63h-64v2h64v-2z" mask="url(#FK)" class="C"/><mask id="FL" class="B"><path d="M832 832h64v64h-64v-64z"/></mask><path d="M896 896v1h1v-1h-1zm-1-64v64h2v-64h-2zm1 63h-64v2h64v-2z" mask="url(#FL)" class="C"/><mask id="FM" class="B"><path d="M896 832h64v64h-64v-64z"/></mask><path d="M960 896v1h1v-1h-1zm-1-64v64h2v-64h-2zm1 63h-64v2h64v-2z" mask="url(#FM)" class="C"/><mask id="FN" class="B"><path d="M960 832h64v64h-64v-64z"/></mask><path d="M1024 896v1h1v-1h-1zm-1-64v64h2v-64h-2zm1 63h-64v2h64v-2z" mask="url(#FN)" class="C"/><mask id="FO" class="B"><path d="M1024 832h64v64h-64v-64z"/></mask><path d="M1088 896v1h1v-1h-1zm-1-64v64h2v-64h-2zm1 63h-64v2h64v-2z" mask="url(#FO)" class="C"/><mask id="FP" class="B"><path d="M1088 832h64v64h-64v-64z"/></mask><path d="M1152 896v1h1v-1h-1zm-1-64v64h2v-64h-2zm1 63h-64v2h64v-2z" mask="url(#FP)" class="C"/><mask id="FQ" class="B"><path d="M1152 832h64v64h-64v-64z"/></mask><path d="M1152 832h64v64h-64v-64z" class="D"/><path d="M1216 896v1h1v-1h-1zm-1-64v64h2v-64h-2zm1 63h-64v2h64v-2z" mask="url(#FQ)" class="C"/><mask id="FR" class="B"><path d="M1216 832h64v64h-64v-64z"/></mask><path d="M1280 896v1h1v-1h-1zm-1-64v64h2v-64h-2zm1 63h-64v2h64v-2z" mask="url(#FR)" class="C"/><mask id="FS" class="B"><path d="M1280 832h64v64h-64v-64z"/></mask><path d="M1344 896v1h1v-1h-1zm-1-64v64h2v-64h-2zm1 63h-64v2h64v-2z" mask="url(#FS)" class="C"/><mask id="FT" class="B"><path d="M1344 832h64v64h-64v-64z"/></mask><path d="M1408 896v1h1v-1h-1zm-1-64v64h2v-64h-2zm1 63h-64v2h64v-2z" mask="url(#FT)" class="C"/><mask id="FU" class="B"><path d="M1408 832h64v64h-64v-64z"/></mask><path d="M1472 896v1h1v-1h-1zm-1-64v64h2v-64h-2zm1 63h-64v2h64v-2z" mask="url(#FU)" class="C"/><mask id="FV" class="B"><path d="M1472 832h64v64h-64v-64z"/></mask><path d="M1536 896v1h1v-1h-1zm-1-64v64h2v-64h-2zm1 63h-64v2h64v-2z" mask="url(#FV)" class="C"/><mask id="FW" class="B"><path d="M1536 832h64v64h-64v-64z"/></mask><path d="M1600 896v1h1v-1h-1zm-1-64v64h2v-64h-2zm1 63h-64v2h64v-2z" mask="url(#FW)" class="C"/><mask id="FX" class="B"><path d="M1600 832h64v64h-64v-64z"/></mask><path d="M1664 896v1h1v-1h-1zm-1-64v64h2v-64h-2zm1 63h-64v2h64v-2z" mask="url(#FX)" class="C"/><mask id="FY" class="B"><path d="M1664 832h64v64h-64v-64z"/></mask><path d="M1664 832h64v64h-64v-64z" class="D"/><path d="M1728 896v1h1v-1h-1zm-1-64v64h2v-64h-2zm1 63h-64v2h64v-2z" mask="url(#FY)" class="C"/><mask id="FZ" class="B"><path d="M192 896h64v64h-64v-64z"/></mask><path d="M256 960v1h1v-1h-1zm-1-64v64h2v-64h-2zm1 63h-64v2h64v-2z" mask="url(#FZ)" class="C"/><mask id="Fa" class="B"><path d="M256 896h64v64h-64v-64z"/></mask><path d="M320 960v1h1v-1h-1zm-1-64v64h2v-64h-2zm1 63h-64v2h64v-2z" mask="url(#Fa)" class="C"/><mask id="Fb" class="B"><path d="M320 896h64v64h-64v-64z"/></mask><path d="M384 960v1h1v-1h-1zm-1-64v64h2v-64h-2zm1 63h-64v2h64v-2z" mask="url(#Fb)" class="C"/><mask id="Fc" class="B"><path d="M384 896h64v64h-64v-64z"/></mask><path d="M384 896h64v64h-64v-64z" class="D"/><path d="M448 960v1h1v-1h-1zm-1-64v64h2v-64h-2zm1 63h-64v2h64v-2z" mask="url(#Fc)" class="C"/><mask id="Fd" class="B"><path d="M448 896h64v64h-64v-64z"/></mask><path d="M512 960v1h1v-1h-1zm-1-64v64h2v-64h-2zm1 63h-64v2h64v-2z" mask="url(#Fd)" class="C"/><mask id="Fe" class="B"><path d="M512 896h64v64h-64v-64z"/></mask><path d="M576 960v1h1v-1h-1zm-1-64v64h2v-64h-2zm1 63h-64v2h64v-2z" mask="url(#Fe)" class="C"/><mask id="Ff" class="B"><path d="M576 896h64v64h-64v-64z"/></mask><path d="M640 960v1h1v-1h-1zm-1-64v64h2v-64h-2zm1 63h-64v2h64v-2z" mask="url(#Ff)" class="C"/><mask id="Fg" class="B"><path d="M640 896h64v64h-64v-64z"/></mask><path d="M704 960v1h1v-1h-1zm-1-64v64h2v-64h-2zm1 63h-64v2h64v-2z" mask="url(#Fg)" class="C"/><mask id="Fh" class="B"><path d="M704 896h64v64h-64v-64z"/></mask><path d="M768 960v1h1v-1h-1zm-1-64v64h2v-64h-2zm1 63h-64v2h64v-2z" mask="url(#Fh)" class="C"/><mask id="Fi" class="B"><path d="M768 896h64v64h-64v-64z"/></mask><path d="M832 960v1h1v-1h-1zm-1-64v64h2v-64h-2zm1 63h-64v2h64v-2z" mask="url(#Fi)" class="C"/><mask id="Fj" class="B"><path d="M832 896h64v64h-64v-64z"/></mask><path d="M896 960v1h1v-1h-1zm-1-64v64h2v-64h-2zm1 63h-64v2h64v-2z" mask="url(#Fj)" class="C"/><mask id="Fk" class="B"><path d="M896 896h64v64h-64v-64z"/></mask><path d="M960 960v1h1v-1h-1zm-1-64v64h2v-64h-2zm1 63h-64v2h64v-2z" mask="url(#Fk)" class="C"/><mask id="Fl" class="B"><path d="M960 896h64v64h-64v-64z"/></mask><path d="M960 896h64v64h-64v-64z" class="D"/><path d="M1024 960v1h1v-1h-1zm-1-64v64h2v-64h-2zm1 63h-64v2h64v-2z" mask="url(#Fl)" class="C"/><mask id="Fm" class="B"><path d="M1024 896h64v64h-64v-64z"/></mask><path d="M1088 960v1h1v-1h-1zm-1-64v64h2v-64h-2zm1 63h-64v2h64v-2z" mask="url(#Fm)" class="C"/><mask id="Fn" class="B"><path d="M1088 896h64v64h-64v-64z"/></mask><path d="M1152 960v1h1v-1h-1zm-1-64v64h2v-64h-2zm1 63h-64v2h64v-2z" mask="url(#Fn)" class="C"/><mask id="Fo" class="B"><path d="M1152 896h64v64h-64v-64z"/></mask><path d="M1216 960v1h1v-1h-1zm-1-64v64h2v-64h-2zm1 63h-64v2h64v-2z" mask="url(#Fo)" class="C"/><mask id="Fp" class="B"><path d="M1216 896h64v64h-64v-64z"/></mask><path d="M1280 960v1h1v-1h-1zm-1-64v64h2v-64h-2zm1 63h-64v2h64v-2z" mask="url(#Fp)" class="C"/><mask id="Fq" class="B"><path d="M1280 896h64v64h-64v-64z"/></mask><path d="M1344 960v1h1v-1h-1zm-1-64v64h2v-64h-2zm1 63h-64v2h64v-2z" mask="url(#Fq)" class="C"/><mask id="Fr" class="B"><path d="M1344 896h64v64h-64v-64z"/></mask><path d="M1408 960v1h1v-1h-1zm-1-64v64h2v-64h-2zm1 63h-64v2h64v-2z" mask="url(#Fr)" class="C"/><mask id="Fs" class="B"><path d="M1408 896h64v64h-64v-64z"/></mask><path d="M1408 896h64v64h-64v-64z" class="D"/><path d="M1472 960v1h1v-1h-1zm-1-64v64h2v-64h-2zm1 63h-64v2h64v-2z" mask="url(#Fs)" class="C"/><mask id="Ft" class="B"><path d="M1472 896h64v64h-64v-64z"/></mask><path d="M1536 960v1h1v-1h-1zm-1-64v64h2v-64h-2zm1 63h-64v2h64v-2z" mask="url(#Ft)" class="C"/><mask id="Fu" class="B"><path d="M1536 896h64v64h-64v-64z"/></mask><path d="M1600 960v1h1v-1h-1zm-1-64v64h2v-64h-2zm1 63h-64v2h64v-2z" mask="url(#Fu)" class="C"/><mask id="Fv" class="B"><path d="M1600 896h64v64h-64v-64z"/></mask><path d="M1664 960v1h1v-1h-1zm-1-64v64h2v-64h-2zm1 63h-64v2h64v-2z" mask="url(#Fv)" class="C"/><mask id="Fw" class="B"><path d="M1664 896h64v64h-64v-64z"/></mask><path d="M1728 960v1h1v-1h-1zm-1-64v64h2v-64h-2zm1 63h-64v2h64v-2z" mask="url(#Fw)" class="C"/><mask id="Fx" class="B"><path d="M192 960h64v64h-64v-64z"/></mask><path d="M256 1024v1h1v-1h-1zm-1-64v64h2v-64h-2zm1 63h-64v2h64v-2z" mask="url(#Fx)" class="C"/><mask id="Fy" class="B"><path d="M256 960h64v64h-64v-64z"/></mask><path d="M256 960h64v64h-64v-64z" class="D"/><path d="M320 1024v1h1v-1h-1zm-1-64v64h2v-64h-2zm1 63h-64v2h64v-2z" mask="url(#Fy)" class="C"/><mask id="Fz" class="B"><path d="M320 960h64v64h-64v-64z"/></mask><path d="M384 1024v1h1v-1h-1zm-1-64v64h2v-64h-2zm1 63h-64v2h64v-2z" mask="url(#Fz)" class="C"/><mask id="GA" class="B"><path d="M384 960h64v64h-64v-64z"/></mask><path d="M448 1024v1h1v-1h-1zm-1-64v64h2v-64h-2zm1 63h-64v2h64v-2z" mask="url(#GA)" class="C"/><mask id="GB" class="B"><path d="M448 960h64v64h-64v-64z"/></mask><path d="M512 1024v1h1v-1h-1zm-1-64v64h2v-64h-2zm1 63h-64v2h64v-2z" mask="url(#GB)" class="C"/><mask id="GC" class="B"><path d="M512 960h64v64h-64v-64z"/></mask><path d="M576 1024v1h1v-1h-1zm-1-64v64h2v-64h-2zm1 63h-64v2h64v-2z" mask="url(#GC)" class="C"/><mask id="GD" class="B"><path d="M576 960h64v64h-64v-64z"/></mask><path d="M640 1024v1h1v-1h-1zm-1-64v64h2v-64h-2zm1 63h-64v2h64v-2z" mask="url(#GD)" class="C"/><mask id="GE" class="B"><path d="M640 960h64v64h-64v-64z"/></mask><path d="M704 1024v1h1v-1h-1zm-1-64v64h2v-64h-2zm1 63h-64v2h64v-2z" mask="url(#GE)" class="C"/><mask id="GF" class="B"><path d="M704 960h64v64h-64v-64z"/></mask><path d="M704 960h64v64h-64v-64z" class="D"/><path d="M768 1024v1h1v-1h-1zm-1-64v64h2v-64h-2zm1 63h-64v2h64v-2z" mask="url(#GF)" class="C"/><mask id="GG" class="B"><path d="M768 960h64v64h-64v-64z"/></mask><path d="M832 1024v1h1v-1h-1zm-1-64v64h2v-64h-2zm1 63h-64v2h64v-2z" mask="url(#GG)" class="C"/><mask id="GH" class="B"><path d="M832 960h64v64h-64v-64z"/></mask><path d="M896 1024v1h1v-1h-1zm-1-64v64h2v-64h-2zm1 63h-64v2h64v-2z" mask="url(#GH)" class="C"/><mask id="GI" class="B"><path d="M896 960h64v64h-64v-64z"/></mask><path d="M960 1024v1h1v-1h-1zm-1-64v64h2v-64h-2zm1 63h-64v2h64v-2z" mask="url(#GI)" class="C"/><mask id="GJ" class="B"><path d="M960 960h64v64h-64v-64z"/></mask><path d="M1024 1024v1h1v-1h-1zm-1-64v64h2v-64h-2zm1 63h-64v2h64v-2z" mask="url(#GJ)" class="C"/><mask id="GK" class="B"><path d="M1024 960h64v64h-64v-64z"/></mask><path d="M1088 1024v1h1v-1h-1zm-1-64v64h2v-64h-2zm1 63h-64v2h64v-2z" mask="url(#GK)" class="C"/><mask id="GL" class="B"><path d="M1088 960h64v64h-64v-64z"/></mask><path d="M1152 1024v1h1v-1h-1zm-1-64v64h2v-64h-2zm1 63h-64v2h64v-2z" mask="url(#GL)" class="C"/><mask id="GM" class="B"><path d="M1152 960h64v64h-64v-64z"/></mask><path d="M1216 1024v1h1v-1h-1zm-1-64v64h2v-64h-2zm1 63h-64v2h64v-2z" mask="url(#GM)" class="C"/><mask id="GN" class="B"><path d="M1216 960h64v64h-64v-64z"/></mask><path d="M1216 960h64v64h-64v-64z" class="D"/><path d="M1280 1024v1h1v-1h-1zm-1-64v64h2v-64h-2zm1 63h-64v2h64v-2z" mask="url(#GN)" class="C"/><mask id="GO" class="B"><path d="M1280 960h64v64h-64v-64z"/></mask><path d="M1344 1024v1h1v-1h-1zm-1-64v64h2v-64h-2zm1 63h-64v2h64v-2z" mask="url(#GO)" class="C"/><mask id="GP" class="B"><path d="M1344 960h64v64h-64v-64z"/></mask><path d="M1408 1024v1h1v-1h-1zm-1-64v64h2v-64h-2zm1 63h-64v2h64v-2z" mask="url(#GP)" class="C"/><mask id="GQ" class="B"><path d="M1408 960h64v64h-64v-64z"/></mask><path d="M1472 1024v1h1v-1h-1zm-1-64v64h2v-64h-2zm1 63h-64v2h64v-2z" mask="url(#GQ)" class="C"/><mask id="GR" class="B"><path d="M1472 960h64v64h-64v-64z"/></mask><path d="M1536 1024v1h1v-1h-1zm-1-64v64h2v-64h-2zm1 63h-64v2h64v-2z" mask="url(#GR)" class="C"/><mask id="GS" class="B"><path d="M1536 960h64v64h-64v-64z"/></mask><path d="M1600 1024v1h1v-1h-1zm-1-64v64h2v-64h-2zm1 63h-64v2h64v-2z" mask="url(#GS)" class="C"/><mask id="GT" class="B"><path d="M1600 960h64v64h-64v-64z"/></mask><path d="M1664 1024v1h1v-1h-1zm-1-64v64h2v-64h-2zm1 63h-64v2h64v-2z" mask="url(#GT)" class="C"/><mask id="GU" class="B"><path d="M1664 960h64v64h-64v-64z"/></mask><path d="M1728 1024v1h1v-1h-1zm-1-64v64h2v-64h-2zm1 63h-64v2h64v-2z" mask="url(#GU)" class="C"/><mask id="GV" class="B"><path d="M192 1024h64v64h-64v-64z"/></mask><path d="M256 1088v1h1v-1h-1zm-1-64v64h2v-64h-2zm1 63h-64v2h64v-2z" mask="url(#GV)" class="C"/><mask id="GW" class="B"><path d="M256 1024h64v64h-64v-64z"/></mask><path d="M320 1088v1h1v-1h-1zm-1-64v64h2v-64h-2zm1 63h-64v2h64v-2z" mask="url(#GW)" class="C"/><mask id="GX" class="B"><path d="M320 1024h64v64h-64v-64z"/></mask><path d="M384 1088v1h1v-1h-1zm-1-64v64h2v-64h-2zm1 63h-64v2h64v-2z" mask="url(#GX)" class="C"/><mask id="GY" class="B"><path d="M384 1024h64v64h-64v-64z"/></mask><path d="M448 1088v1h1v-1h-1zm-1-64v64h2v-64h-2zm1 63h-64v2h64v-2z" mask="url(#GY)" class="C"/><mask id="GZ" class="B"><path d="M448 1024h64v64h-64v-64z"/></mask><path d="M448 1024h64v64h-64v-64z" class="D"/><path d="M512 1088v1h1v-1h-1zm-1-64v64h2v-64h-2zm1 63h-64v2h64v-2z" mask="url(#GZ)" class="C"/><mask id="Ga" class="B"><path d="M512 1024h64v64h-64v-64z"/></mask><path d="M576 1088v1h1v-1h-1zm-1-64v64h2v-64h-2zm1 63h-64v2h64v-2z" mask="url(#Ga)" class="C"/><mask id="Gb" class="B"><path d="M576 1024h64v64h-64v-64z"/></mask><path d="M640 1088v1h1v-1h-1zm-1-64v64h2v-64h-2zm1 63h-64v2h64v-2z" mask="url(#Gb)" class="C"/><mask id="Gc" class="B"><path d="M640 1024h64v64h-64v-64z"/></mask><path d="M704 1088v1h1v-1h-1zm-1-64v64h2v-64h-2zm1 63h-64v2h64v-2z" mask="url(#Gc)" class="C"/><mask id="Gd" class="B"><path d="M704 1024h64v64h-64v-64z"/></mask><path d="M768 1088v1h1v-1h-1zm-1-64v64h2v-64h-2zm1 63h-64v2h64v-2z" mask="url(#Gd)" class="C"/><mask id="Ge" class="B"><path d="M768 1024h64v64h-64v-64z"/></mask><path d="M832 1088v1h1v-1h-1zm-1-64v64h2v-64h-2zm1 63h-64v2h64v-2z" mask="url(#Ge)" class="C"/><mask id="Gf" class="B"><path d="M832 1024h64v64h-64v-64z"/></mask><path d="M896 1088v1h1v-1h-1zm-1-64v64h2v-64h-2zm1 63h-64v2h64v-2z" mask="url(#Gf)" class="C"/><mask id="Gg" class="B"><path d="M896 1024h64v64h-64v-64z"/></mask><path d="M960 1088v1h1v-1h-1zm-1-64v64h2v-64h-2zm1 63h-64v2h64v-2z" mask="url(#Gg)" class="C"/><mask id="Gh" class="B"><path d="M960 1024h64v64h-64v-64z"/></mask><path d="M1024 1088v1h1v-1h-1zm-1-64v64h2v-64h-2zm1 63h-64v2h64v-2z" mask="url(#Gh)" class="C"/><mask id="Gi" class="B"><path d="M1024 1024h64v64h-64v-64z"/></mask><path d="M1088 1088v1h1v-1h-1zm-1-64v64h2v-64h-2zm1 63h-64v2h64v-2z" mask="url(#Gi)" class="C"/><mask id="Gj" class="B"><path d="M1088 1024h64v64h-64v-64z"/></mask><path d="M1152 1088v1h1v-1h-1zm-1-64v64h2v-64h-2zm1 63h-64v2h64v-2z" mask="url(#Gj)" class="C"/><mask id="Gk" class="B"><path d="M1152 1024h64v64h-64v-64z"/></mask><path d="M1216 1088v1h1v-1h-1zm-1-64v64h2v-64h-2zm1 63h-64v2h64v-2z" mask="url(#Gk)" class="C"/><mask id="Gl" class="B"><path d="M1216 1024h64v64h-64v-64z"/></mask><path d="M1280 1088v1h1v-1h-1zm-1-64v64h2v-64h-2zm1 63h-64v2h64v-2z" mask="url(#Gl)" class="C"/><mask id="Gm" class="B"><path d="M1280 1024h64v64h-64v-64z"/></mask><path d="M1344 1088v1h1v-1h-1zm-1-64v64h2v-64h-2zm1 63h-64v2h64v-2z" mask="url(#Gm)" class="C"/><mask id="Gn" class="B"><path d="M1344 1024h64v64h-64v-64z"/></mask><path d="M1408 1088v1h1v-1h-1zm-1-64v64h2v-64h-2zm1 63h-64v2h64v-2z" mask="url(#Gn)" class="C"/><mask id="Go" class="B"><path d="M1408 1024h64v64h-64v-64z"/></mask><path d="M1408 1024h64v64h-64v-64z" class="D"/><path d="M1472 1088v1h1v-1h-1zm-1-64v64h2v-64h-2zm1 63h-64v2h64v-2z" mask="url(#Go)" class="C"/><mask id="Gp" class="B"><path d="M1472 1024h64v64h-64v-64z"/></mask><path d="M1536 1088v1h1v-1h-1zm-1-64v64h2v-64h-2zm1 63h-64v2h64v-2z" mask="url(#Gp)" class="C"/><mask id="Gq" class="B"><path d="M1536 1024h64v64h-64v-64z"/></mask><path d="M1600 1088v1h1v-1h-1zm-1-64v64h2v-64h-2zm1 63h-64v2h64v-2z" mask="url(#Gq)" class="C"/><mask id="Gr" class="B"><path d="M1600 1024h64v64h-64v-64z"/></mask><path d="M1664 1088v1h1v-1h-1zm-1-64v64h2v-64h-2zm1 63h-64v2h64v-2z" mask="url(#Gr)" class="C"/><mask id="Gs" class="B"><path d="M1664 1024h64v64h-64v-64z"/></mask><path d="M1728 1088v1h1v-1h-1zm-1-64v64h2v-64h-2zm1 63h-64v2h64v-2z" mask="url(#Gs)" class="C"/><mask id="Gt" class="B"><path d="M192 1088h64v64h-64v-64z"/></mask><path d="M256 1152v1h1v-1h-1zm-1-64v64h2v-64h-2zm1 63h-64v2h64v-2z" mask="url(#Gt)" class="C"/><mask id="Gu" class="B"><path d="M256 1088h64v64h-64v-64z"/></mask><path d="M320 1152v1h1v-1h-1zm-1-64v64h2v-64h-2zm1 63h-64v2h64v-2z" mask="url(#Gu)" class="C"/><mask id="Gv" class="B"><path d="M320 1088h64v64h-64v-64z"/></mask><path d="M384 1152v1h1v-1h-1zm-1-64v64h2v-64h-2zm1 63h-64v2h64v-2z" mask="url(#Gv)" class="C"/><mask id="Gw" class="B"><path d="M384 1088h64v64h-64v-64z"/></mask><path d="M448 1152v1h1v-1h-1zm-1-64v64h2v-64h-2zm1 63h-64v2h64v-2z" mask="url(#Gw)" class="C"/><mask id="Gx" class="B"><path d="M448 1088h64v64h-64v-64z"/></mask><path d="M512 1152v1h1v-1h-1zm-1-64v64h2v-64h-2zm1 63h-64v2h64v-2z" mask="url(#Gx)" class="C"/><mask id="Gy" class="B"><path d="M512 1088h64v64h-64v-64z"/></mask><path d="M576 1152v1h1v-1h-1zm-1-64v64h2v-64h-2zm1 63h-64v2h64v-2z" mask="url(#Gy)" class="C"/><mask id="Gz" class="B"><path d="M576 1088h64v64h-64v-64z"/></mask><path d="M640 1152v1h1v-1h-1zm-1-64v64h2v-64h-2zm1 63h-64v2h64v-2z" mask="url(#Gz)" class="C"/><mask id="HA" class="B"><path d="M640 1088h64v64h-64v-64z"/></mask><path d="M704 1152v1h1v-1h-1zm-1-64v64h2v-64h-2zm1 63h-64v2h64v-2z" mask="url(#HA)" class="C"/><mask id="HB" class="B"><path d="M704 1088h64v64h-64v-64z"/></mask><path d="M768 1152v1h1v-1h-1zm-1-64v64h2v-64h-2zm1 63h-64v2h64v-2z" mask="url(#HB)" class="C"/><mask id="HC" class="B"><path d="M768 1088h64v64h-64v-64z"/></mask><path d="M768 1088h64v64h-64v-64z" class="D"/><path d="M832 1152v1h1v-1h-1zm-1-64v64h2v-64h-2zm1 63h-64v2h64v-2z" mask="url(#HC)" class="C"/><mask id="HD" class="B"><path d="M832 1088h64v64h-64v-64z"/></mask><path d="M896 1152v1h1v-1h-1zm-1-64v64h2v-64h-2zm1 63h-64v2h64v-2z" mask="url(#HD)" class="C"/><mask id="HE" class="B"><path d="M896 1088h64v64h-64v-64z"/></mask><path d="M960 1152v1h1v-1h-1zm-1-64v64h2v-64h-2zm1 63h-64v2h64v-2z" mask="url(#HE)" class="C"/><mask id="HF" class="B"><path d="M960 1088h64v64h-64v-64z"/></mask><path d="M1024 1152v1h1v-1h-1zm-1-64v64h2v-64h-2zm1 63h-64v2h64v-2z" mask="url(#HF)" class="C"/><mask id="HG" class="B"><path d="M1024 1088h64v64h-64v-64z"/></mask><path d="M1024 1088h64v64h-64v-64z" class="D"/><path d="M1088 1152v1h1v-1h-1zm-1-64v64h2v-64h-2zm1 63h-64v2h64v-2z" mask="url(#HG)" class="C"/><mask id="HH" class="B"><path d="M1088 1088h64v64h-64v-64z"/></mask><path d="M1152 1152v1h1v-1h-1zm-1-64v64h2v-64h-2zm1 63h-64v2h64v-2z" mask="url(#HH)" class="C"/><mask id="HI" class="B"><path d="M1152 1088h64v64h-64v-64z"/></mask><path d="M1216 1152v1h1v-1h-1zm-1-64v64h2v-64h-2zm1 63h-64v2h64v-2z" mask="url(#HI)" class="C"/><mask id="HJ" class="B"><path d="M1216 1088h64v64h-64v-64z"/></mask><path d="M1280 1152v1h1v-1h-1zm-1-64v64h2v-64h-2zm1 63h-64v2h64v-2z" mask="url(#HJ)" class="C"/><mask id="HK" class="B"><path d="M1280 1088h64v64h-64v-64z"/></mask><path d="M1344 1152v1h1v-1h-1zm-1-64v64h2v-64h-2zm1 63h-64v2h64v-2z" mask="url(#HK)" class="C"/><mask id="HL" class="B"><path d="M1344 1088h64v64h-64v-64z"/></mask><path d="M1408 1152v1h1v-1h-1zm-1-64v64h2v-64h-2zm1 63h-64v2h64v-2z" mask="url(#HL)" class="C"/><mask id="HM" class="B"><path d="M1408 1088h64v64h-64v-64z"/></mask><path d="M1472 1152v1h1v-1h-1zm-1-64v64h2v-64h-2zm1 63h-64v2h64v-2z" mask="url(#HM)" class="C"/><mask id="HN" class="B"><path d="M1472 1088h64v64h-64v-64z"/></mask><path d="M1536 1152v1h1v-1h-1zm-1-64v64h2v-64h-2zm1 63h-64v2h64v-2z" mask="url(#HN)" class="C"/><mask id="HO" class="B"><path d="M1536 1088h64v64h-64v-64z"/></mask><path d="M1600 1152v1h1v-1h-1zm-1-64v64h2v-64h-2zm1 63h-64v2h64v-2z" mask="url(#HO)" class="C"/><mask id="HP" class="B"><path d="M1600 1088h64v64h-64v-64z"/></mask><path d="M1664 1152v1h1v-1h-1zm-1-64v64h2v-64h-2zm1 63h-64v2h64v-2z" mask="url(#HP)" class="C"/><mask id="HQ" class="B"><path d="M1664 1088h64v64h-64v-64z"/></mask><path d="M1664 1088h64v64h-64v-64z" class="D"/><path d="M1728 1152v1h1v-1h-1zm-1-64v64h2v-64h-2zm1 63h-64v2h64v-2z" mask="url(#HQ)" class="C"/><mask id="HR" class="B"><path d="M192 1152h64v64h-64v-64z"/></mask><path d="M192 1152h64v64h-64v-64z" class="D"/><path d="M256 1216v1h1v-1h-1zm-1-64v64h2v-64h-2zm1 63h-64v2h64v-2z" mask="url(#HR)" class="C"/><mask id="HS" class="B"><path d="M256 1152h64v64h-64v-64z"/></mask><path d="M320 1216v1h1v-1h-1zm-1-64v64h2v-64h-2zm1 63h-64v2h64v-2z" mask="url(#HS)" class="C"/><mask id="HT" class="B"><path d="M320 1152h64v64h-64v-64z"/></mask><path d="M384 1216v1h1v-1h-1zm-1-64v64h2v-64h-2zm1 63h-64v2h64v-2z" mask="url(#HT)" class="C"/><mask id="HU" class="B"><path d="M384 1152h64v64h-64v-64z"/></mask><path d="M384 1152h64v64h-64v-64z" class="D"/><path d="M448 1216v1h1v-1h-1zm-1-64v64h2v-64h-2zm1 63h-64v2h64v-2z" mask="url(#HU)" class="C"/><mask id="HV" class="B"><path d="M448 1152h64v64h-64v-64z"/></mask><path d="M512 1216v1h1v-1h-1zm-1-64v64h2v-64h-2zm1 63h-64v2h64v-2z" mask="url(#HV)" class="C"/><mask id="HW" class="B"><path d="M512 1152h64v64h-64v-64z"/></mask><path d="M576 1216v1h1v-1h-1zm-1-64v64h2v-64h-2zm1 63h-64v2h64v-2z" mask="url(#HW)" class="C"/><mask id="HX" class="B"><path d="M576 1152h64v64h-64v-64z"/></mask><path d="M640 1216v1h1v-1h-1zm-1-64v64h2v-64h-2zm1 63h-64v2h64v-2z" mask="url(#HX)" class="C"/><mask id="HY" class="B"><path d="M640 1152h64v64h-64v-64z"/></mask><path d="M704 1216v1h1v-1h-1zm-1-64v64h2v-64h-2zm1 63h-64v2h64v-2z" mask="url(#HY)" class="C"/><mask id="HZ" class="B"><path d="M704 1152h64v64h-64v-64z"/></mask><path d="M768 1216v1h1v-1h-1zm-1-64v64h2v-64h-2zm1 63h-64v2h64v-2z" mask="url(#HZ)" class="C"/><mask id="Ha" class="B"><path d="M768 1152h64v64h-64v-64z"/></mask><path d="M832 1216v1h1v-1h-1zm-1-64v64h2v-64h-2zm1 63h-64v2h64v-2z" mask="url(#Ha)" class="C"/><mask id="Hb" class="B"><path d="M832 1152h64v64h-64v-64z"/></mask><path d="M896 1216v1h1v-1h-1zm-1-64v64h2v-64h-2zm1 63h-64v2h64v-2z" mask="url(#Hb)" class="C"/><mask id="Hc" class="B"><path d="M896 1152h64v64h-64v-64z"/></mask><path d="M960 1216v1h1v-1h-1zm-1-64v64h2v-64h-2zm1 63h-64v2h64v-2z" mask="url(#Hc)" class="C"/><mask id="Hd" class="B"><path d="M960 1152h64v64h-64v-64z"/></mask><path d="M1024 1216v1h1v-1h-1zm-1-64v64h2v-64h-2zm1 63h-64v2h64v-2z" mask="url(#Hd)" class="C"/><mask id="He" class="B"><path d="M1024 1152h64v64h-64v-64z"/></mask><path d="M1088 1216v1h1v-1h-1zm-1-64v64h2v-64h-2zm1 63h-64v2h64v-2z" mask="url(#He)" class="C"/><mask id="Hf" class="B"><path d="M1088 1152h64v64h-64v-64z"/></mask><path d="M1152 1216v1h1v-1h-1zm-1-64v64h2v-64h-2zm1 63h-64v2h64v-2z" mask="url(#Hf)" class="C"/><mask id="Hg" class="B"><path d="M1152 1152h64v64h-64v-64z"/></mask><path d="M1216 1216v1h1v-1h-1zm-1-64v64h2v-64h-2zm1 63h-64v2h64v-2z" mask="url(#Hg)" class="C"/><mask id="Hh" class="B"><path d="M1216 1152h64v64h-64v-64z"/></mask><path d="M1280 1216v1h1v-1h-1zm-1-64v64h2v-64h-2zm1 63h-64v2h64v-2z" mask="url(#Hh)" class="C"/><mask id="Hi" class="B"><path d="M1280 1152h64v64h-64v-64z"/></mask><path d="M1280 1152h64v64h-64v-64z" class="D"/><path d="M1344 1216v1h1v-1h-1zm-1-64v64h2v-64h-2zm1 63h-64v2h64v-2z" mask="url(#Hi)" class="C"/><mask id="Hj" class="B"><path d="M1344 1152h64v64h-64v-64z"/></mask><path d="M1408 1216v1h1v-1h-1zm-1-64v64h2v-64h-2zm1 63h-64v2h64v-2z" mask="url(#Hj)" class="C"/><mask id="Hk" class="B"><path d="M1408 1152h64v64h-64v-64z"/></mask><path d="M1472 1216v1h1v-1h-1zm-1-64v64h2v-64h-2zm1 63h-64v2h64v-2z" mask="url(#Hk)" class="C"/><mask id="Hl" class="B"><path d="M1472 1152h64v64h-64v-64z"/></mask><path d="M1536 1216v1h1v-1h-1zm-1-64v64h2v-64h-2zm1 63h-64v2h64v-2z" mask="url(#Hl)" class="C"/><mask id="Hm" class="B"><path d="M1536 1152h64v64h-64v-64z"/></mask><path d="M1600 1216v1h1v-1h-1zm-1-64v64h2v-64h-2zm1 63h-64v2h64v-2z" mask="url(#Hm)" class="C"/><mask id="Hn" class="B"><path d="M1600 1152h64v64h-64v-64z"/></mask><path d="M1664 1216v1h1v-1h-1zm-1-64v64h2v-64h-2zm1 63h-64v2h64v-2z" mask="url(#Hn)" class="C"/><mask id="Ho" class="B"><path d="M1664 1152h64v64h-64v-64z"/></mask><path d="M1728 1216v1h1v-1h-1zm-1-64v64h2v-64h-2zm1 63h-64v2h64v-2z" mask="url(#Ho)" class="C"/><mask id="Hp" class="B"><path d="M192 1216h64v64h-64v-64z"/></mask><path d="M256 1280v1h1v-1h-1zm-1-64v64h2v-64h-2zm1 63h-64v2h64v-2z" mask="url(#Hp)" class="C"/><mask id="Hq" class="B"><path d="M256 1216h64v64h-64v-64z"/></mask><path d="M320 1280v1h1v-1h-1zm-1-64v64h2v-64h-2zm1 63h-64v2h64v-2z" mask="url(#Hq)" class="C"/><mask id="Hr" class="B"><path d="M320 1216h64v64h-64v-64z"/></mask><path d="M384 1280v1h1v-1h-1zm-1-64v64h2v-64h-2zm1 63h-64v2h64v-2z" mask="url(#Hr)" class="C"/><mask id="Hs" class="B"><path d="M384 1216h64v64h-64v-64z"/></mask><path d="M448 1280v1h1v-1h-1zm-1-64v64h2v-64h-2zm1 63h-64v2h64v-2z" mask="url(#Hs)" class="C"/><mask id="Ht" class="B"><path d="M448 1216h64v64h-64v-64z"/></mask><path d="M512 1280v1h1v-1h-1zm-1-64v64h2v-64h-2zm1 63h-64v2h64v-2z" mask="url(#Ht)" class="C"/><mask id="Hu" class="B"><path d="M512 1216h64v64h-64v-64z"/></mask><path d="M512 1216h64v64h-64v-64z" class="D"/><path d="M576 1280v1h1v-1h-1zm-1-64v64h2v-64h-2zm1 63h-64v2h64v-2z" mask="url(#Hu)" class="C"/><mask id="Hv" class="B"><path d="M576 1216h64v64h-64v-64z"/></mask><path d="M640 1280v1h1v-1h-1zm-1-64v64h2v-64h-2zm1 63h-64v2h64v-2z" mask="url(#Hv)" class="C"/><mask id="Hw" class="B"><path d="M640 1216h64v64h-64v-64z"/></mask><path d="M704 1280v1h1v-1h-1zm-1-64v64h2v-64h-2zm1 63h-64v2h64v-2z" mask="url(#Hw)" class="C"/><mask id="Hx" class="B"><path d="M704 1216h64v64h-64v-64z"/></mask><path d="M768 1280v1h1v-1h-1zm-1-64v64h2v-64h-2zm1 63h-64v2h64v-2z" mask="url(#Hx)" class="C"/><mask id="Hy" class="B"><path d="M768 1216h64v64h-64v-64z"/></mask><path d="M832 1280v1h1v-1h-1zm-1-64v64h2v-64h-2zm1 63h-64v2h64v-2z" mask="url(#Hy)" class="C"/><mask id="Hz" class="B"><path d="M832 1216h64v64h-64v-64z"/></mask><path d="M832 1216h64v64h-64v-64z" class="D"/><path d="M896 1280v1h1v-1h-1zm-1-64v64h2v-64h-2zm1 63h-64v2h64v-2z" mask="url(#Hz)" class="C"/><mask id="IA" class="B"><path d="M896 1216h64v64h-64v-64z"/></mask><path d="M960 1280v1h1v-1h-1zm-1-64v64h2v-64h-2zm1 63h-64v2h64v-2z" mask="url(#IA)" class="C"/><mask id="IB" class="B"><path d="M960 1216h64v64h-64v-64z"/></mask><path d="M1024 1280v1h1v-1h-1zm-1-64v64h2v-64h-2zm1 63h-64v2h64v-2z" mask="url(#IB)" class="C"/><mask id="IC" class="B"><path d="M1024 1216h64v64h-64v-64z"/></mask><path d="M1088 1280v1h1v-1h-1zm-1-64v64h2v-64h-2zm1 63h-64v2h64v-2z" mask="url(#IC)" class="C"/><mask id="ID" class="B"><path d="M1088 1216h64v64h-64v-64z"/></mask><path d="M1152 1280v1h1v-1h-1zm-1-64v64h2v-64h-2zm1 63h-64v2h64v-2z" mask="url(#ID)" class="C"/><mask id="IE" class="B"><path d="M1152 1216h64v64h-64v-64z"/></mask><path d="M1216 1280v1h1v-1h-1zm-1-64v64h2v-64h-2zm1 63h-64v2h64v-2z" mask="url(#IE)" class="C"/><mask id="IF" class="B"><path d="M1216 1216h64v64h-64v-64z"/></mask><path d="M1280 1280v1h1v-1h-1zm-1-64v64h2v-64h-2zm1 63h-64v2h64v-2z" mask="url(#IF)" class="C"/><mask id="IG" class="B"><path d="M1280 1216h64v64h-64v-64z"/></mask><path d="M1344 1280v1h1v-1h-1zm-1-64v64h2v-64h-2zm1 63h-64v2h64v-2z" mask="url(#IG)" class="C"/><mask id="IH" class="B"><path d="M1344 1216h64v64h-64v-64z"/></mask><path d="M1408 1280v1h1v-1h-1zm-1-64v64h2v-64h-2zm1 63h-64v2h64v-2z" mask="url(#IH)" class="C"/><mask id="II" class="B"><path d="M1408 1216h64v64h-64v-64z"/></mask><path d="M1472 1280v1h1v-1h-1zm-1-64v64h2v-64h-2zm1 63h-64v2h64v-2z" mask="url(#II)" class="C"/><mask id="IJ" class="B"><path d="M1472 1216h64v64h-64v-64z"/></mask><path d="M1536 1280v1h1v-1h-1zm-1-64v64h2v-64h-2zm1 63h-64v2h64v-2z" mask="url(#IJ)" class="C"/><mask id="IK" class="B"><path d="M1536 1216h64v64h-64v-64z"/></mask><path d="M1536 1216h64v64h-64v-64z" class="D"/><path d="M1600 1280v1h1v-1h-1zm-1-64v64h2v-64h-2zm1 63h-64v2h64v-2z" mask="url(#IK)" class="C"/><mask id="IL" class="B"><path d="M1600 1216h64v64h-64v-64z"/></mask><path d="M1664 1280v1h1v-1h-1zm-1-64v64h2v-64h-2zm1 63h-64v2h64v-2z" mask="url(#IL)" class="C"/><mask id="IM" class="B"><path d="M1664 1216h64v64h-64v-64z"/></mask><path d="M1728 1280v1h1v-1h-1zm-1-64v64h2v-64h-2zm1 63h-64v2h64v-2z" mask="url(#IM)" class="C"/><mask id="IN" class="B"><path d="M192 1280h64v64h-64v-64z"/></mask><path d="M256 1344v1h1v-1h-1zm-1-64v64h2v-64h-2zm1 63h-64v2h64v-2z" mask="url(#IN)" class="C"/><mask id="IO" class="B"><path d="M256 1280h64v64h-64v-64z"/></mask><path d="M320 1344v1h1v-1h-1zm-1-64v64h2v-64h-2zm1 63h-64v2h64v-2z" mask="url(#IO)" class="C"/><mask id="IP" class="B"><path d="M320 1280h64v64h-64v-64z"/></mask><path d="M384 1344v1h1v-1h-1zm-1-64v64h2v-64h-2zm1 63h-64v2h64v-2z" mask="url(#IP)" class="C"/><mask id="IQ" class="B"><path d="M384 1280h64v64h-64v-64z"/></mask><path d="M448 1344v1h1v-1h-1zm-1-64v64h2v-64h-2zm1 63h-64v2h64v-2z" mask="url(#IQ)" class="C"/><mask id="IR" class="B"><path d="M448 1280h64v64h-64v-64z"/></mask><path d="M512 1344v1h1v-1h-1zm-1-64v64h2v-64h-2zm1 63h-64v2h64v-2z" mask="url(#IR)" class="C"/><mask id="IS" class="B"><path d="M512 1280h64v64h-64v-64z"/></mask><path d="M576 1344v1h1v-1h-1zm-1-64v64h2v-64h-2zm1 63h-64v2h64v-2z" mask="url(#IS)" class="C"/><mask id="IT" class="B"><path d="M576 1280h64v64h-64v-64z"/></mask><path d="M640 1344v1h1v-1h-1zm-1-64v64h2v-64h-2zm1 63h-64v2h64v-2z" mask="url(#IT)" class="C"/><mask id="IU" class="B"><path d="M640 1280h64v64h-64v-64z"/></mask><path d="M704 1344v1h1v-1h-1zm-1-64v64h2v-64h-2zm1 63h-64v2h64v-2z" mask="url(#IU)" class="C"/><mask id="IV" class="B"><path d="M704 1280h64v64h-64v-64z"/></mask><path d="M704 1280h64v64h-64v-64z" class="D"/><path d="M768 1344v1h1v-1h-1zm-1-64v64h2v-64h-2zm1 63h-64v2h64v-2z" mask="url(#IV)" class="C"/><mask id="IW" class="B"><path d="M768 1280h64v64h-64v-64z"/></mask><path d="M832 1344v1h1v-1h-1zm-1-64v64h2v-64h-2zm1 63h-64v2h64v-2z" mask="url(#IW)" class="C"/><mask id="IX" class="B"><path d="M832 1280h64v64h-64v-64z"/></mask><path d="M896 1344v1h1v-1h-1zm-1-64v64h2v-64h-2zm1 63h-64v2h64v-2z" mask="url(#IX)" class="C"/><mask id="IY" class="B"><path d="M896 1280h64v64h-64v-64z"/></mask><path d="M960 1344v1h1v-1h-1zm-1-64v64h2v-64h-2zm1 63h-64v2h64v-2z" mask="url(#IY)" class="C"/><mask id="IZ" class="B"><path d="M960 1280h64v64h-64v-64z"/></mask><path d="M1024 1344v1h1v-1h-1zm-1-64v64h2v-64h-2zm1 63h-64v2h64v-2z" mask="url(#IZ)" class="C"/><mask id="Ia" class="B"><path d="M1024 1280h64v64h-64v-64z"/></mask><path d="M1088 1344v1h1v-1h-1zm-1-64v64h2v-64h-2zm1 63h-64v2h64v-2z" mask="url(#Ia)" class="C"/><mask id="Ib" class="B"><path d="M1088 1280h64v64h-64v-64z"/></mask><path d="M1088 1280h64v64h-64v-64z" class="D"/><path d="M1152 1344v1h1v-1h-1zm-1-64v64h2v-64h-2zm1 63h-64v2h64v-2z" mask="url(#Ib)" class="C"/><mask id="Ic" class="B"><path d="M1152 1280h64v64h-64v-64z"/></mask><path d="M1216 1344v1h1v-1h-1zm-1-64v64h2v-64h-2zm1 63h-64v2h64v-2z" mask="url(#Ic)" class="C"/><mask id="Id" class="B"><path d="M1216 1280h64v64h-64v-64z"/></mask><path d="M1280 1344v1h1v-1h-1zm-1-64v64h2v-64h-2zm1 63h-64v2h64v-2z" mask="url(#Id)" class="C"/><mask id="Ie" class="B"><path d="M1280 1280h64v64h-64v-64z"/></mask><path d="M1280 1280h64v64h-64v-64z" class="D"/><path d="M1344 1344v1h1v-1h-1zm-1-64v64h2v-64h-2zm1 63h-64v2h64v-2z" mask="url(#Ie)" class="C"/><mask id="If" class="B"><path d="M1344 1280h64v64h-64v-64z"/></mask><path d="M1408 1344v1h1v-1h-1zm-1-64v64h2v-64h-2zm1 63h-64v2h64v-2z" mask="url(#If)" class="C"/><mask id="Ig" class="B"><path d="M1408 1280h64v64h-64v-64z"/></mask><path d="M1472 1344v1h1v-1h-1zm-1-64v64h2v-64h-2zm1 63h-64v2h64v-2z" mask="url(#Ig)" class="C"/><mask id="Ih" class="B"><path d="M1472 1280h64v64h-64v-64z"/></mask><path d="M1536 1344v1h1v-1h-1zm-1-64v64h2v-64h-2zm1 63h-64v2h64v-2z" mask="url(#Ih)" class="C"/><mask id="Ii" class="B"><path d="M1536 1280h64v64h-64v-64z"/></mask><path d="M1600 1344v1h1v-1h-1zm-1-64v64h2v-64h-2zm1 63h-64v2h64v-2z" mask="url(#Ii)" class="C"/><mask id="Ij" class="B"><path d="M1600 1280h64v64h-64v-64z"/></mask><path d="M1664 1344v1h1v-1h-1zm-1-64v64h2v-64h-2zm1 63h-64v2h64v-2z" mask="url(#Ij)" class="C"/><mask id="Ik" class="B"><path d="M1664 1280h64v64h-64v-64z"/></mask><path d="M1728 1344v1h1v-1h-1zm-1-64v64h2v-64h-2zm1 63h-64v2h64v-2z" mask="url(#Ik)" class="C"/><mask id="Il" class="B"><path d="M192 1344h64v64h-64v-64z"/></mask><path d="M256 1408v1h1v-1h-1zm-1-64v64h2v-64h-2zm1 63h-64v2h64v-2z" mask="url(#Il)" class="C"/><mask id="Im" class="B"><path d="M256 1344h64v64h-64v-64z"/></mask><path d="M320 1408v1h1v-1h-1zm-1-64v64h2v-64h-2zm1 63h-64v2h64v-2z" mask="url(#Im)" class="C"/><mask id="In" class="B"><path d="M320 1344h64v64h-64v-64z"/></mask><path d="M384 1408v1h1v-1h-1zm-1-64v64h2v-64h-2zm1 63h-64v2h64v-2z" mask="url(#In)" class="C"/><mask id="Io" class="B"><path d="M384 1344h64v64h-64v-64z"/></mask><path d="M448 1408v1h1v-1h-1zm-1-64v64h2v-64h-2zm1 63h-64v2h64v-2z" mask="url(#Io)" class="C"/><mask id="Ip" class="B"><path d="M448 1344h64v64h-64v-64z"/></mask><path d="M448 1344h64v64h-64v-64z" class="D"/><path d="M512 1408v1h1v-1h-1zm-1-64v64h2v-64h-2zm1 63h-64v2h64v-2z" mask="url(#Ip)" class="C"/><mask id="Iq" class="B"><path d="M512 1344h64v64h-64v-64z"/></mask><path d="M576 1408v1h1v-1h-1zm-1-64v64h2v-64h-2zm1 63h-64v2h64v-2z" mask="url(#Iq)" class="C"/><mask id="Ir" class="B"><path d="M576 1344h64v64h-64v-64z"/></mask><path d="M640 1408v1h1v-1h-1zm-1-64v64h2v-64h-2zm1 63h-64v2h64v-2z" mask="url(#Ir)" class="C"/><mask id="Is" class="B"><path d="M640 1344h64v64h-64v-64z"/></mask><path d="M704 1408v1h1v-1h-1zm-1-64v64h2v-64h-2zm1 63h-64v2h64v-2z" mask="url(#Is)" class="C"/><mask id="It" class="B"><path d="M704 1344h64v64h-64v-64z"/></mask><path d="M768 1408v1h1v-1h-1zm-1-64v64h2v-64h-2zm1 63h-64v2h64v-2z" mask="url(#It)" class="C"/><mask id="Iu" class="B"><path d="M768 1344h64v64h-64v-64z"/></mask><path d="M832 1408v1h1v-1h-1zm-1-64v64h2v-64h-2zm1 63h-64v2h64v-2z" mask="url(#Iu)" class="C"/><mask id="Iv" class="B"><path d="M832 1344h64v64h-64v-64z"/></mask><path d="M896 1408v1h1v-1h-1zm-1-64v64h2v-64h-2zm1 63h-64v2h64v-2z" mask="url(#Iv)" class="C"/><mask id="Iw" class="B"><path d="M896 1344h64v64h-64v-64z"/></mask><path d="M896 1344h64v64h-64v-64z" class="D"/><path d="M960 1408v1h1v-1h-1zm-1-64v64h2v-64h-2zm1 63h-64v2h64v-2z" mask="url(#Iw)" class="C"/><mask id="Ix" class="B"><path d="M960 1344h64v64h-64v-64z"/></mask><path d="M1024 1408v1h1v-1h-1zm-1-64v64h2v-64h-2zm1 63h-64v2h64v-2z" mask="url(#Ix)" class="C"/><mask id="Iy" class="B"><path d="M1024 1344h64v64h-64v-64z"/></mask><path d="M1088 1408v1h1v-1h-1zm-1-64v64h2v-64h-2zm1 63h-64v2h64v-2z" mask="url(#Iy)" class="C"/><mask id="Iz" class="B"><path d="M1088 1344h64v64h-64v-64z"/></mask><path d="M1152 1408v1h1v-1h-1zm-1-64v64h2v-64h-2zm1 63h-64v2h64v-2z" mask="url(#Iz)" class="C"/><mask id="JA" class="B"><path d="M1152 1344h64v64h-64v-64z"/></mask><path d="M1216 1408v1h1v-1h-1zm-1-64v64h2v-64h-2zm1 63h-64v2h64v-2z" mask="url(#JA)" class="C"/><mask id="JB" class="B"><path d="M1216 1344h64v64h-64v-64z"/></mask><path d="M1280 1408v1h1v-1h-1zm-1-64v64h2v-64h-2zm1 63h-64v2h64v-2z" mask="url(#JB)" class="C"/><mask id="JC" class="B"><path d="M1280 1344h64v64h-64v-64z"/></mask><path d="M1344 1408v1h1v-1h-1zm-1-64v64h2v-64h-2zm1 63h-64v2h64v-2z" mask="url(#JC)" class="C"/><mask id="JD" class="B"><path d="M1344 1344h64v64h-64v-64z"/></mask><path d="M1408 1408v1h1v-1h-1zm-1-64v64h2v-64h-2zm1 63h-64v2h64v-2z" mask="url(#JD)" class="C"/><mask id="JE" class="B"><path d="M1408 1344h64v64h-64v-64z"/></mask><path d="M1472 1408v1h1v-1h-1zm-1-64v64h2v-64h-2zm1 63h-64v2h64v-2z" mask="url(#JE)" class="C"/><mask id="JF" class="B"><path d="M1472 1344h64v64h-64v-64z"/></mask><path d="M1472 1344h64v64h-64v-64z" class="D"/><path d="M1536 1408v1h1v-1h-1zm-1-64v64h2v-64h-2zm1 63h-64v2h64v-2z" mask="url(#JF)" class="C"/><mask id="JG" class="B"><path d="M1536 1344h64v64h-64v-64z"/></mask><path d="M1600 1408v1h1v-1h-1zm-1-64v64h2v-64h-2zm1 63h-64v2h64v-2z" mask="url(#JG)" class="C"/><mask id="JH" class="B"><path d="M1600 1344h64v64h-64v-64z"/></mask><path d="M1664 1408v1h1v-1h-1zm-1-64v64h2v-64h-2zm1 63h-64v2h64v-2z" mask="url(#JH)" class="C"/><mask id="JI" class="B"><path d="M1664 1344h64v64h-64v-64z"/></mask><path d="M1728 1408v1h1v-1h-1zm-1-64v64h2v-64h-2zm1 63h-64v2h64v-2z" mask="url(#JI)" class="C"/></g><path stroke="#d0d5dd" d="M.5.5h1919v1407H.5z"/></g><defs><radialGradient id="JJ" cx="0" cy="0" r="1" gradientUnits="userSpaceOnUse" gradientTransform="translate(720 -0.000171661) rotate(90) scale(1440 751.588)"><stop/><stop offset=".953" stop-opacity="0"/></radialGradient><clipPath id="JK"><path d="M0 0h1920v1408H0z" class="B"/></clipPath></defs></svg>